<svg width="784" height="188" viewBox="0 0 784 188" fill="none" xmlns="http://www.w3.org/2000/svg">
	<g clip-path="url(#clip0)">
		<path d="M36.1507 188C27.9894 188 20.1625 184.758 14.3916 178.987C6.58743 171.183 1.57533 161.102 0.31467 149.388C-0.845908 138.604 1.34 128.095 4.6377 118.573C11.0864 99.9529 24.7196 77.0545 45.0939 48.2615C53.7399 36.0427 61.2262 26.4452 67.7018 19.4095C70.9348 15.8967 74.3695 12.5235 77.9702 9.66426C81.1868 7.11001 86.4972 3.36323 93.4522 1.37026C101.423 -0.913722 113.851 -1.25203 124.621 7.65592C133.554 15.045 135.996 24.6456 136.794 28.9374C137.469 32.565 137.642 36.2614 137.539 39.7639C140.937 38.4713 144.624 37.7635 148.476 37.7635H182.1C196.807 37.7635 212.016 41.714 224.487 52.5571C227.511 55.1669 230.141 57.9883 232.401 60.9762C239.774 58.5539 247.354 57.62 254.636 57.62H473.312H544.912C546.624 51.8778 549.788 45.9777 555.197 40.8688C555.398 40.6791 555.601 40.4921 555.807 40.3078C564.934 32.142 575.653 30.218 583.474 30.218C591.272 30.218 602.095 32.1856 611.179 40.5814C616.775 45.6938 620.092 51.6976 621.88 57.62H648.261H722.94C733.594 57.62 744.738 59.8286 754.957 65.8398C764.391 71.3892 771.914 79.2627 776.99 89.0379C781.921 98.5353 784.026 108.709 784.026 118.839V125.399C784.026 138.077 784.026 145.846 779.751 154.891C774.492 166.015 766.058 174.469 755.743 180.103C745.6 185.693 734.62 188 723.734 188L36.1507 188Z" fill="#3300BB" />
		<path d="M182.1 68.5357C191.366 68.5357 198.779 70.9626 204.339 75.8164C209.987 80.6702 212.811 87.3773 212.811 95.9376C212.811 104.41 209.987 111.117 204.339 116.059C198.779 120.913 191.366 123.34 182.1 123.34H162.64V155.904H148.476V68.5357H182.1ZM179.849 111.161C186.115 111.161 190.704 109.881 193.616 107.322C196.617 104.763 198.117 100.968 198.117 95.9376C198.117 90.9073 196.617 87.1125 193.616 84.5532C190.704 81.9057 186.115 80.5819 179.849 80.5819H162.64V111.161H179.849Z" fill="white" />
		<path d="M267.741 113.411C267.741 108.999 266.505 105.601 264.034 103.218C261.652 100.747 258.342 99.5118 254.106 99.5118C250.135 99.5118 246.693 100.438 243.781 102.292C240.957 104.145 238.927 107.145 237.692 111.293L225.778 106.263C227.454 100.88 230.72 96.5554 235.574 93.2901C240.516 90.0248 246.87 88.3921 254.636 88.3921C259.843 88.3921 264.476 89.2747 268.535 91.0397C272.683 92.7164 275.904 95.3198 278.199 98.8499C280.582 102.292 281.773 106.66 281.773 111.955V141.475C281.773 144.74 283.406 146.373 286.671 146.373C288.259 146.373 289.804 146.152 291.304 145.711L290.51 155.507C288.48 156.478 285.921 156.963 282.832 156.963C279.302 156.963 276.257 156.169 273.698 154.58C271.139 152.992 269.418 150.609 268.535 147.432C266.417 150.697 263.373 153.168 259.401 154.845C255.43 156.434 251.459 157.228 247.487 157.228C241.222 157.228 236.015 155.728 231.867 152.727C227.719 149.727 225.645 145.226 225.645 139.225C225.645 134.371 227.234 130.355 230.411 127.178C233.676 124.001 238.265 121.795 244.178 120.56L267.741 115.926V113.411ZM239.942 138.166C239.942 140.637 240.869 142.622 242.722 144.123C244.663 145.535 247.223 146.241 250.4 146.241C253.4 146.241 256.224 145.755 258.872 144.784C261.519 143.814 263.637 142.225 265.226 140.019C266.903 137.813 267.741 134.945 267.741 131.414V125.855L251.062 129.296C247.267 130.002 244.443 131.017 242.589 132.341C240.824 133.665 239.942 135.606 239.942 138.166Z" fill="white" />
		<path d="M330.132 157.228C323.513 157.228 317.468 155.948 311.996 153.389C306.525 150.83 302.2 147.211 299.023 142.534L308.819 134.062C310.761 137.68 313.54 140.593 317.159 142.799C320.865 144.917 325.278 145.976 330.396 145.976C334.456 145.976 337.677 145.27 340.06 143.858C342.443 142.446 343.634 140.46 343.634 137.901C343.634 136.224 343.06 134.768 341.913 133.532C340.854 132.209 338.78 131.194 335.691 130.488L321.792 127.576C314.732 126.164 309.702 123.869 306.701 120.692C303.7 117.515 302.2 113.544 302.2 108.778C302.2 105.16 303.259 101.806 305.377 98.7175C307.584 95.6287 310.716 93.1577 314.776 91.3044C318.835 89.3629 323.733 88.3921 329.47 88.3921C336 88.3921 341.604 89.5835 346.282 91.9663C351.047 94.2608 354.665 97.5702 357.136 101.895L347.341 110.102C345.576 106.572 343.06 103.968 339.795 102.292C336.618 100.527 333.265 99.6441 329.734 99.6441C325.41 99.6441 322.057 100.438 319.674 102.027C317.379 103.527 316.232 105.513 316.232 107.984C316.232 109.661 316.894 111.205 318.218 112.617C319.542 113.941 321.924 114.956 325.366 115.662L340.457 118.839C346.811 120.074 351.268 122.192 353.827 125.193C356.475 128.105 357.798 131.679 357.798 135.915C357.798 142.269 355.327 147.432 350.385 151.403C345.443 155.286 338.692 157.228 330.132 157.228Z" fill="white" />
		<path d="M400.198 157.228C393.579 157.228 387.534 155.948 382.062 153.389C376.591 150.83 372.267 147.211 369.09 142.534L378.885 134.062C380.827 137.68 383.607 140.593 387.225 142.799C390.932 144.917 395.344 145.976 400.463 145.976C404.522 145.976 407.743 145.27 410.126 143.858C412.509 142.446 413.7 140.46 413.7 137.901C413.7 136.224 413.127 134.768 411.98 133.532C410.921 132.209 408.847 131.194 405.758 130.488L391.858 127.576C384.798 126.164 379.768 123.869 376.767 120.692C373.767 117.515 372.267 113.544 372.267 108.778C372.267 105.16 373.326 101.806 375.444 98.7175C377.65 95.6287 380.783 93.1577 384.842 91.3044C388.902 89.3629 393.8 88.3921 399.536 88.3921C406.067 88.3921 411.671 89.5835 416.348 91.9663C421.114 94.2608 424.732 97.5702 427.203 101.895L417.407 110.102C415.642 106.572 413.127 103.968 409.862 102.292C406.684 100.527 403.331 99.6441 399.801 99.6441C395.477 99.6441 392.123 100.438 389.74 102.027C387.446 103.527 386.299 105.513 386.299 107.984C386.299 109.661 386.96 111.205 388.284 112.617C389.608 113.941 391.991 114.956 395.432 115.662L410.523 118.839C416.877 120.074 421.334 122.192 423.893 125.193C426.541 128.105 427.865 131.679 427.865 135.915C427.865 142.269 425.394 147.432 420.452 151.403C415.51 155.286 408.758 157.228 400.198 157.228Z" fill="white" />
		<path d="M474.106 157.228C467.488 157.228 461.663 155.86 456.633 153.124C451.691 150.388 447.808 146.461 444.984 141.343C442.16 136.136 440.748 129.958 440.748 122.81C440.748 115.662 442.115 109.528 444.851 104.41C447.675 99.2029 451.514 95.2316 456.368 92.4958C461.31 89.76 466.958 88.3921 473.312 88.3921C479.755 88.3921 485.226 89.7159 489.727 92.3634C494.228 95.011 497.669 98.6293 500.052 103.218C502.435 107.807 503.626 113.014 503.626 118.839C503.626 120.515 503.582 122.06 503.494 123.472C503.406 124.884 503.273 126.075 503.097 127.046H454.647C455.265 133.224 457.251 137.945 460.604 141.21C464.046 144.387 468.458 145.976 473.842 145.976C478.254 145.976 481.828 145.137 484.564 143.461C487.3 141.784 489.462 139.445 491.051 136.445L502.303 141.74C500.008 146.594 496.346 150.388 491.315 153.124C486.373 155.86 480.637 157.228 474.106 157.228ZM473.047 99.6441C468.194 99.6441 464.178 101.056 461.001 103.88C457.912 106.704 455.927 110.808 455.044 116.191H489.859C489.506 110.896 487.829 106.837 484.829 104.013C481.828 101.1 477.901 99.6441 473.047 99.6441Z" fill="white" />
		<path d="M521.514 155.904V89.7159H533.56L534.884 101.63C538.502 92.8047 545.43 88.3921 555.667 88.3921C556.991 88.3921 558.314 88.5245 559.638 88.7893C560.962 88.9658 562.065 89.2747 562.948 89.7159L560.962 102.159C559.991 101.806 558.888 101.542 557.653 101.365C556.505 101.1 554.917 100.968 552.887 100.968C550.063 100.968 547.327 101.718 544.68 103.218C542.12 104.63 539.958 106.837 538.193 109.837C536.516 112.749 535.678 116.412 535.678 120.824V155.904H521.514Z" fill="white" />
		<path d="M583.474 78.5963C580.385 78.5963 578.003 77.8462 576.326 76.3459C574.737 74.7574 573.943 72.5511 573.943 69.7271C573.943 66.903 574.737 64.7409 576.326 63.2406C578.003 61.7404 580.385 60.9902 583.474 60.9902C586.475 60.9902 588.769 61.7404 590.358 63.2406C592.035 64.7409 592.873 66.903 592.873 69.7271C592.873 72.5511 592.035 74.7574 590.358 76.3459C588.769 77.8462 586.475 78.5963 583.474 78.5963ZM590.49 89.7159V155.904H576.326V89.7159H590.49Z" fill="white" />
		<path d="M612.652 155.904V89.7159H625.228L625.889 101.1C628.096 96.6877 631.14 93.4666 635.023 91.4368C638.995 89.407 643.407 88.3921 648.261 88.3921C652.938 88.3921 657.13 89.3188 660.837 91.1721C664.632 92.9371 667.632 95.6729 669.838 99.3794C672.045 102.998 673.148 107.543 673.148 113.014V155.904H658.984V117.383C658.984 110.852 657.616 106.351 654.88 103.88C652.232 101.321 648.879 100.041 644.819 100.041C641.907 100.041 639.083 100.703 636.347 102.027C633.611 103.351 631.317 105.557 629.464 108.646C627.699 111.646 626.816 115.662 626.816 120.692V155.904H612.652Z" fill="white" />
		<path d="M723.734 157.228C717.115 157.228 711.291 155.86 706.261 153.124C701.318 150.388 697.435 146.461 694.611 141.343C691.787 136.136 690.375 129.958 690.375 122.81C690.375 115.662 691.743 109.528 694.479 104.41C697.303 99.2029 701.142 95.2316 705.996 92.4958C710.938 89.76 716.586 88.3921 722.94 88.3921C729.382 88.3921 734.854 89.7159 739.355 92.3634C743.855 95.011 747.297 98.6293 749.68 103.218C752.063 107.807 753.254 113.014 753.254 118.839C753.254 120.515 753.21 122.06 753.122 123.472C753.033 124.884 752.901 126.075 752.725 127.046H704.275C704.893 133.224 706.878 137.945 710.232 141.21C713.674 144.387 718.086 145.976 723.469 145.976C727.882 145.976 731.456 145.137 734.192 143.461C736.928 141.784 739.09 139.445 740.678 136.445L751.93 141.74C749.636 146.594 745.973 150.388 740.943 153.124C736.001 155.86 730.265 157.228 723.734 157.228ZM722.675 99.6441C717.821 99.6441 713.806 101.056 710.629 103.88C707.54 106.704 705.554 110.808 704.672 116.191H739.487C739.134 110.896 737.457 106.837 734.457 104.013C731.456 101.1 727.529 99.6441 722.675 99.6441Z" fill="white" />
		<path d="M70.2132 66.0359C136.686 -27.9036 95.2387 92.2757 80.0306 120.843C71.1964 137.438 60.1112 133.539 49.9059 136.125C41.3569 138.29 36.1507 147.096 36.1507 157.228C57.254 136.125 66.6658 151.713 116.397 157.228H36.1507C24.5491 145.626 29.9039 123.001 70.2132 66.0359Z" fill="white" />
	</g>
	<defs>
		<clipPath id="clip0">
			<rect width="784" height="188" fill="white" />
		</clipPath>
	</defs>
</svg>
