<svg width="800" height="188" viewBox="0 0 800 188" fill="none" xmlns="http://www.w3.org/2000/svg">
<path d="M196.142 69.1745C205.176 69.1745 212.403 71.5405 217.823 76.2726C223.329 81.0046 226.083 87.5434 226.083 95.889C226.083 104.149 223.329 110.687 217.823 115.505C212.403 120.237 205.176 122.603 196.142 122.603H177.171V154.351H163.362V69.1745H196.142ZM193.948 110.73C200.056 110.73 204.53 109.483 207.369 106.988C210.295 104.493 211.757 100.793 211.757 95.889C211.757 90.9849 210.295 87.2853 207.369 84.7902C204.53 82.2091 200.056 80.9186 193.948 80.9186H177.171V110.73H193.948Z" fill="white"/>
<path d="M279.634 112.924C279.634 108.622 278.43 105.31 276.021 102.987C273.698 100.578 270.472 99.3735 266.342 99.3735C262.47 99.3735 259.115 100.277 256.275 102.084C253.522 103.89 251.543 106.816 250.339 110.859L238.724 105.955C240.359 100.707 243.542 96.4913 248.274 93.3079C253.092 90.1245 259.287 88.5328 266.858 88.5328C271.934 88.5328 276.451 89.3932 280.409 91.1139C284.453 92.7486 287.593 95.2867 289.83 98.7282C292.153 102.084 293.314 106.342 293.314 111.505V140.284C293.314 143.467 294.906 145.059 298.089 145.059C299.638 145.059 301.144 144.844 302.606 144.414L301.832 153.964C299.853 154.91 297.358 155.384 294.347 155.384C290.905 155.384 287.937 154.609 285.442 153.061C282.947 151.512 281.269 149.189 280.409 146.092C278.344 149.275 275.376 151.684 271.504 153.319C267.632 154.867 263.761 155.642 259.889 155.642C253.78 155.642 248.704 154.179 244.66 151.254C240.617 148.329 238.595 143.941 238.595 138.09C238.595 133.358 240.144 129.443 243.241 126.346C246.424 123.249 250.898 121.098 256.663 119.893L279.634 115.376V112.924ZM252.533 137.058C252.533 139.467 253.436 141.403 255.243 142.865C257.136 144.242 259.631 144.93 262.728 144.93C265.653 144.93 268.407 144.457 270.988 143.51C273.569 142.564 275.634 141.015 277.182 138.864C278.817 136.714 279.634 133.917 279.634 130.476V125.056L263.373 128.411C259.674 129.099 256.921 130.089 255.114 131.379C253.393 132.67 252.533 134.563 252.533 137.058Z" fill="white"/>
<path d="M340.46 155.642C334.007 155.642 328.114 154.394 322.779 151.899C317.445 149.404 313.229 145.876 310.132 141.317L319.682 133.057C321.575 136.584 324.285 139.424 327.812 141.575C331.426 143.64 335.728 144.672 340.718 144.672C344.676 144.672 347.816 143.984 350.139 142.607C352.462 141.23 353.624 139.295 353.624 136.8C353.624 135.165 353.064 133.745 351.946 132.541C350.913 131.25 348.892 130.261 345.88 129.572L332.329 126.733C325.446 125.357 320.542 123.12 317.617 120.022C314.692 116.925 313.229 113.053 313.229 108.407C313.229 104.88 314.262 101.61 316.327 98.5992C318.477 95.5879 321.532 93.1788 325.489 91.3721C329.447 89.4792 334.222 88.5328 339.815 88.5328C346.181 88.5328 351.645 89.6943 356.205 92.0173C360.851 94.2543 364.378 97.4807 366.787 101.696L357.237 109.698C355.516 106.256 353.064 103.718 349.881 102.084C346.784 100.363 343.514 99.5025 340.073 99.5025C335.857 99.5025 332.588 100.277 330.265 101.826C328.028 103.288 326.909 105.224 326.909 107.633C326.909 109.268 327.554 110.773 328.845 112.15C330.135 113.441 332.458 114.43 335.814 115.118L350.526 118.216C356.721 119.42 361.066 121.485 363.561 124.41C366.142 127.249 367.432 130.734 367.432 134.864C367.432 141.058 365.023 146.092 360.205 149.963C355.387 153.749 348.805 155.642 340.46 155.642Z" fill="white"/>
<path d="M408.769 155.642C402.316 155.642 396.422 154.394 391.088 151.899C385.754 149.404 381.538 145.876 378.441 141.317L387.991 133.057C389.883 136.584 392.594 139.424 396.121 141.575C399.735 143.64 404.036 144.672 409.027 144.672C412.984 144.672 416.125 143.984 418.448 142.607C420.771 141.23 421.932 139.295 421.932 136.8C421.932 135.165 421.373 133.745 420.254 132.541C419.222 131.25 417.2 130.261 414.189 129.572L400.638 126.733C393.755 125.357 388.851 123.12 385.926 120.022C383 116.925 381.538 113.053 381.538 108.407C381.538 104.88 382.57 101.61 384.635 98.5992C386.786 95.5879 389.84 93.1788 393.798 91.3721C397.756 89.4792 402.531 88.5328 408.123 88.5328C414.49 88.5328 419.953 89.6943 424.513 92.0173C429.159 94.2543 432.687 97.4807 435.096 101.696L425.546 109.698C423.825 106.256 421.373 103.718 418.19 102.084C415.092 100.363 411.823 99.5025 408.381 99.5025C404.166 99.5025 400.896 100.277 398.573 101.826C396.336 103.288 395.218 105.224 395.218 107.633C395.218 109.268 395.863 110.773 397.154 112.15C398.444 113.441 400.767 114.43 404.123 115.118L418.835 118.216C425.03 119.42 429.374 121.485 431.869 124.41C434.451 127.249 435.741 130.734 435.741 134.864C435.741 141.058 433.332 146.092 428.514 149.963C423.696 153.749 417.114 155.642 408.769 155.642Z" fill="white"/>
<path d="M480.823 155.642C474.37 155.642 468.692 154.308 463.787 151.641C458.969 148.974 455.184 145.145 452.431 140.155C449.677 135.079 448.301 129.056 448.301 122.087C448.301 115.118 449.634 109.139 452.302 104.149C455.055 99.0724 458.797 95.2007 463.529 92.5336C468.347 89.8664 473.854 88.5328 480.048 88.5328C486.329 88.5328 491.663 89.8234 496.051 92.4045C500.439 94.9856 503.795 98.5131 506.118 102.987C508.441 107.461 509.602 112.537 509.602 118.216C509.602 119.85 509.559 121.356 509.473 122.733C509.387 124.109 509.258 125.271 509.086 126.217H461.852C462.454 132.24 464.39 136.843 467.659 140.026C471.015 143.123 475.316 144.672 480.565 144.672C484.867 144.672 488.351 143.855 491.018 142.22C493.685 140.585 495.793 138.305 497.342 135.38L508.312 140.542C506.075 145.274 502.504 148.974 497.6 151.641C492.782 154.308 487.19 155.642 480.823 155.642ZM479.79 99.5025C475.058 99.5025 471.144 100.879 468.046 103.632C465.035 106.386 463.099 110.386 462.239 115.634H496.18C495.836 110.472 494.202 106.515 491.276 103.761C488.351 100.922 484.522 99.5025 479.79 99.5025Z" fill="white"/>
<path d="M527.041 154.351V89.8234H538.785L540.075 101.438C543.603 92.8347 550.357 88.5328 560.337 88.5328C561.628 88.5328 562.918 88.6619 564.209 88.92C565.499 89.0921 566.575 89.3932 567.435 89.8234L565.499 101.955C564.553 101.61 563.477 101.352 562.273 101.18C561.154 100.922 559.606 100.793 557.627 100.793C554.874 100.793 552.207 101.524 549.625 102.987C547.13 104.364 545.022 106.515 543.302 109.44C541.667 112.279 540.85 115.85 540.85 120.151V154.351H527.041Z" fill="white"/>
<path d="M587.447 78.9827C584.436 78.9827 582.112 78.2514 580.478 76.7888C578.929 75.2401 578.155 73.0892 578.155 70.336C578.155 67.5828 578.929 65.4749 580.478 64.0123C582.112 62.5497 584.436 61.8184 587.447 61.8184C590.372 61.8184 592.609 62.5497 594.158 64.0123C595.792 65.4749 596.61 67.5828 596.61 70.336C596.61 73.0892 595.792 75.2401 594.158 76.7888C592.609 78.2514 590.372 78.9827 587.447 78.9827ZM594.287 89.8234V154.351H580.478V89.8234H594.287Z" fill="white"/>
<path d="M615.892 154.351V89.8234H628.153L628.798 100.922C630.949 96.6203 633.917 93.48 637.703 91.5011C641.574 89.5223 645.876 88.5328 650.608 88.5328C655.168 88.5328 659.255 89.4362 662.869 91.243C666.568 92.9637 669.493 95.6309 671.644 99.2444C673.795 102.772 674.871 107.203 674.871 112.537V154.351H661.062V116.796C661.062 110.429 659.728 106.041 657.061 103.632C654.48 101.137 651.211 99.8897 647.253 99.8897C644.414 99.8897 641.661 100.535 638.993 101.826C636.326 103.116 634.089 105.267 632.282 108.278C630.562 111.204 629.701 115.118 629.701 120.022V154.351H615.892Z" fill="white"/>
<path d="M724.188 155.642C717.735 155.642 712.057 154.308 707.153 151.641C702.335 148.974 698.549 145.145 695.796 140.155C693.043 135.079 691.666 129.056 691.666 122.087C691.666 115.118 693 109.139 695.667 104.149C698.42 99.0724 702.163 95.2007 706.895 92.5336C711.713 89.8664 717.219 88.5328 723.414 88.5328C729.694 88.5328 735.029 89.8234 739.417 92.4045C743.805 94.9856 747.16 98.5131 749.483 102.987C751.806 107.461 752.967 112.537 752.967 118.216C752.967 119.85 752.924 121.356 752.838 122.733C752.752 124.109 752.623 125.271 752.451 126.217H705.217C705.819 132.24 707.755 136.843 711.024 140.026C714.38 143.123 718.682 144.672 723.93 144.672C728.232 144.672 731.716 143.855 734.383 142.22C737.051 140.585 739.159 138.305 740.707 135.38L751.677 140.542C749.44 145.274 745.869 148.974 740.965 151.641C736.147 154.308 730.555 155.642 724.188 155.642ZM723.156 99.5025C718.424 99.5025 714.509 100.879 711.412 103.632C708.4 106.386 706.464 110.386 705.604 115.634H739.546C739.202 110.472 737.567 106.515 734.642 103.761C731.716 100.922 727.888 99.5025 723.156 99.5025Z" fill="white"/>
<path d="M87.0621 66.7376C151.867 -24.8451 111.46 92.3192 96.6332 120.17C88.0206 136.349 77.2135 132.548 67.2643 135.068C58.9297 137.179 53.8542 145.765 53.8542 155.642C74.428 135.068 83.6037 150.266 132.087 155.642H53.8542C42.5436 144.331 47.764 122.274 87.0621 66.7376Z" fill="white"/>
<path d="M196.142 110.673C201.008 110.409 204.684 109.238 207.171 107.158C207.238 107.102 207.304 107.045 207.369 106.988C207.861 106.569 208.311 106.115 208.72 105.628C208.795 105.538 208.869 105.447 208.942 105.355L208.951 105.343C210.552 103.306 211.468 100.704 211.699 97.5377C211.738 97.0042 211.757 96.4546 211.757 95.889C211.757 94.8351 211.69 93.8367 211.555 92.8941C211.193 90.3704 210.347 88.2455 209.017 86.5193C208.995 86.491 208.973 86.4627 208.951 86.4346C208.483 85.8382 207.955 85.29 207.369 84.7902C207.304 84.7307 207.238 84.6719 207.171 84.6138C204.684 82.4625 201.008 81.2506 196.142 80.9779C195.435 80.9383 194.704 80.9186 193.948 80.9186H177.171V110.73H193.948C194.704 110.73 195.435 110.711 196.142 110.673Z" fill="#3300BB"/>
<path d="M736.344 105.697C735.836 104.996 735.268 104.351 734.642 103.761C734.238 103.37 733.817 103.005 733.38 102.668C730.701 100.602 727.379 99.5477 723.414 99.504C723.328 99.503 723.242 99.5025 723.156 99.5025C719.013 99.5025 715.497 100.558 712.607 102.668L712.534 102.721C712.149 103.006 711.775 103.31 711.412 103.632C709.537 105.347 708.079 107.544 707.038 110.226L707.009 110.3C706.392 111.906 705.924 113.684 705.604 115.634H739.546C739.377 113.097 738.896 110.851 738.103 108.896C737.628 107.725 737.042 106.659 736.344 105.697Z" fill="#3300BB"/>
<path d="M256.63 130.476C257.218 130.181 257.868 129.907 258.581 129.652C258.619 129.639 258.656 129.626 258.693 129.613C259.074 129.479 259.473 129.351 259.889 129.229C260.174 129.145 260.468 129.064 260.769 128.985C260.809 128.975 260.849 128.965 260.888 128.955C260.986 128.93 261.086 128.905 261.185 128.88C261.348 128.84 261.514 128.801 261.681 128.762C261.838 128.726 261.996 128.691 262.156 128.656C262.344 128.615 262.535 128.575 262.728 128.536L262.814 128.519C262.979 128.486 263.145 128.454 263.314 128.422L263.373 128.411L279.634 125.056V130.476C279.634 133.023 279.187 135.217 278.291 137.058C277.977 137.703 277.607 138.306 277.182 138.864C276.818 139.371 276.424 139.844 276.002 140.284C275.403 140.908 274.746 141.465 274.032 141.955C274.014 141.967 273.996 141.98 273.977 141.992C273.933 142.022 273.888 142.052 273.843 142.082C273.458 142.336 273.057 142.57 272.64 142.786C272.115 143.058 271.564 143.299 270.988 143.51C269.995 143.874 268.977 144.168 267.933 144.392C267.873 144.405 267.812 144.418 267.751 144.431C267.41 144.501 267.065 144.564 266.718 144.62L266.693 144.624C266.661 144.629 266.629 144.634 266.596 144.639C266.53 144.649 266.464 144.659 266.398 144.669C265.999 144.727 265.596 144.776 265.19 144.814C265.115 144.822 265.04 144.828 264.964 144.835C264.889 144.842 264.814 144.848 264.738 144.853C264.362 144.883 263.983 144.903 263.601 144.916C263.312 144.925 263.021 144.93 262.728 144.93C262.444 144.93 262.165 144.924 261.891 144.913L261.804 144.909C261.728 144.905 261.653 144.901 261.579 144.897C261.475 144.891 261.372 144.884 261.27 144.876C260.793 144.839 260.333 144.784 259.889 144.71C258.067 144.408 256.518 143.793 255.243 142.865C254.462 142.233 253.849 141.512 253.406 140.702C253.24 140.399 253.097 140.083 252.979 139.755C252.789 139.232 252.66 138.677 252.591 138.09C252.552 137.756 252.533 137.412 252.533 137.058C252.533 136.677 252.553 136.31 252.593 135.958C252.602 135.88 252.611 135.804 252.622 135.727C252.883 133.879 253.713 132.43 255.114 131.379C255.517 131.091 255.967 130.818 256.465 130.56C256.519 130.532 256.575 130.504 256.63 130.476Z" fill="#3300BB"/>
<path d="M463.644 110.3C463.251 111.322 462.919 112.414 462.647 113.575C462.491 114.239 462.355 114.925 462.239 115.634H496.18C496.011 113.097 495.53 110.851 494.738 108.896C494.263 107.725 493.677 106.659 492.979 105.697C492.47 104.996 491.903 104.351 491.276 103.761C490.873 103.37 490.452 103.005 490.014 102.668C487.336 100.602 484.014 99.5477 480.048 99.504C479.963 99.503 479.877 99.5025 479.79 99.5025C475.648 99.5025 472.131 100.558 469.241 102.668L469.169 102.721C468.783 103.006 468.409 103.31 468.046 103.632C466.466 105.077 465.182 106.865 464.194 108.997C464.01 109.395 463.836 109.804 463.672 110.226L463.644 110.3Z" fill="#3300BB"/>
<path fill-rule="evenodd" clip-rule="evenodd" d="M32.6409 176.855C38.267 182.481 45.8976 185.642 53.8541 185.642H132.087C138.249 185.642 143.996 183.779 148.777 180.573C153.094 182.98 158.068 184.351 163.362 184.351H177.171C193.739 184.351 207.171 170.92 207.171 154.351V151.802C208.221 151.645 209.269 151.463 210.314 151.256C212.794 160.395 218.09 169.059 227.077 175.561C237.291 182.949 248.905 185.642 259.889 185.642C266.28 185.642 272.459 184.606 278.337 182.723C283.7 184.609 289.149 185.384 294.347 185.384C300.251 185.384 307.513 184.491 314.734 181.048C323.028 184.199 331.698 185.642 340.46 185.642C351.463 185.642 363.403 183.471 374.042 176.846C375.455 177.641 376.901 178.383 378.377 179.073C388.059 183.602 398.349 185.642 408.769 185.642C420.642 185.642 433.605 183.114 444.849 175.19C446.267 176.146 447.737 177.046 449.258 177.888C449.323 177.924 449.389 177.96 449.454 177.995C459.4 183.404 470.149 185.642 480.823 185.642C490.704 185.642 500.664 183.692 509.972 179.025C514.817 182.383 520.699 184.351 527.041 184.351H540.85C548.444 184.351 555.379 181.529 560.664 176.877C565.949 181.529 572.884 184.351 580.478 184.351H594.287C598.095 184.351 601.738 183.641 605.09 182.347C608.441 183.641 612.084 184.351 615.892 184.351H629.701C635.449 184.351 640.819 182.735 645.382 179.932C649.944 182.735 655.314 184.351 661.062 184.351H674.871C681.739 184.351 688.068 182.043 693.125 178.16C702.985 183.45 713.624 185.642 724.188 185.642C734.801 185.642 745.505 183.393 755.394 177.944C765.45 172.451 773.673 164.208 778.799 153.364C781.526 147.594 782.326 141.146 781.152 134.955C781.485 133.859 781.758 132.734 781.967 131.584C782.418 129.105 782.649 126.696 782.78 124.604C782.911 122.503 782.967 120.365 782.967 118.216C782.967 108.34 780.915 98.4217 776.108 89.1626C771.16 79.6326 763.825 71.9566 754.627 66.5465C744.664 60.686 733.801 58.5328 723.414 58.5328C712.782 58.5328 702.163 60.8631 692.365 66.2868C692.298 66.3239 692.231 66.3613 692.164 66.399C689.954 67.6448 687.858 69.014 685.877 70.4966C682.862 68.0533 679.533 65.947 675.911 64.2251C667.734 60.2146 659.092 58.5328 650.608 58.5328C645.336 58.5328 640.066 59.1875 634.912 60.5891C632.737 60.0879 630.474 59.8234 628.153 59.8234H625.254C623.616 53.6372 620.319 47.2777 614.456 41.9217C605.6 33.7365 595.049 31.8184 587.447 31.8184C579.822 31.8184 569.372 33.6941 560.474 41.655C560.273 41.8346 560.075 42.017 559.879 42.2019C554.303 47.468 551.175 53.5966 549.578 59.4936C548.108 59.7654 546.633 60.1 545.159 60.504C543.101 60.0578 540.968 59.8234 538.785 59.8234H527.041C520.467 59.8234 514.387 61.9377 509.444 65.5233C499.987 60.4334 489.807 58.5328 480.048 58.5328C469.416 58.5328 458.797 60.8631 449 66.2868C448.933 66.3239 448.866 66.3613 448.799 66.399C447.342 67.22 445.935 68.0946 444.578 69.02C442.428 67.5744 440.173 66.2786 437.829 65.1336C428.234 60.316 417.988 58.5328 408.123 58.5328C399.324 58.5328 389.98 59.9996 381.103 64.19C378.83 65.2395 376.589 66.4467 374.415 67.826C372.833 66.8513 371.199 65.9537 369.52 65.1333C359.925 60.3159 349.679 58.5328 339.815 58.5328C331.016 58.5328 321.671 59.9996 312.794 64.19C309.499 65.7114 306.271 67.5645 303.216 69.7927C299.767 67.2103 296.005 65.0962 292.021 63.4511C283.79 59.9367 275.215 58.5328 266.858 58.5328C259.759 58.5328 252.369 59.4433 245.181 61.8049C242.977 58.8919 240.413 56.1413 237.465 53.597C225.307 43.0259 210.48 39.1745 196.142 39.1745H163.362C159.606 39.1745 156.012 39.8646 152.699 41.1247C152.799 37.7101 152.63 34.1064 151.973 30.5698C151.195 26.3857 148.814 17.026 140.105 9.82225C129.605 1.13778 117.489 1.4676 109.718 3.69428C102.938 5.63725 97.7604 9.29004 94.6245 11.7802C91.1141 14.5677 87.7656 17.8563 84.6137 21.281C78.3006 28.1402 71.0021 37.4969 62.5729 49.4091C42.7098 77.4798 29.4186 99.8038 23.1317 117.957C19.9167 127.24 17.7857 137.485 18.9171 147.999C20.1462 159.419 25.0325 169.247 32.6409 176.855ZM96.6332 120.17C95.4839 122.329 94.2956 124.132 93.0755 125.642C89.483 130.087 85.6147 131.99 81.6556 132.946C79.3089 133.513 76.9304 133.747 74.5585 133.98C72.1057 134.221 69.6601 134.461 67.2642 135.068C58.9296 137.18 53.8541 145.765 53.8541 155.642C47.0913 148.879 46.2384 138.274 55.0464 118.968C56.56 115.65 58.359 112.075 60.4624 108.219C60.9477 107.329 61.4493 106.424 61.9673 105.504C67.5458 95.5943 75.0309 83.9101 84.7149 70.0729C85.4834 68.9748 86.2657 67.8632 87.062 66.7378C91.0763 61.0648 94.6868 56.1928 97.9248 52.0509C125.833 16.351 126.06 34.8931 118.51 62.3139C116.62 69.181 114.241 76.605 111.688 83.8733C106.892 97.5252 101.478 110.628 97.5191 118.46C97.2149 119.062 96.9193 119.633 96.6332 120.17ZM53.8541 155.642C59.7604 149.736 64.7274 146.777 69.9547 145.689C76.8258 144.257 84.1467 146.056 94.6422 148.635L94.6438 148.635C98.8754 149.675 103.623 150.842 109.065 151.974C115.626 153.34 123.195 154.656 132.087 155.642H53.8541ZM196.142 122.603C202.212 122.603 207.466 121.535 211.905 119.399C211.999 119.354 212.092 119.308 212.186 119.262C212.277 119.216 212.369 119.17 212.46 119.124C213.677 118.504 214.831 117.801 215.922 117.015C215.975 116.977 216.028 116.938 216.08 116.9C216.68 116.46 217.261 115.996 217.823 115.505C220.549 113.12 222.601 110.312 223.977 107.083C224.03 106.958 224.082 106.833 224.133 106.708C224.566 105.642 224.927 104.532 225.215 103.376C225.329 102.92 225.432 102.458 225.523 101.988C225.532 101.943 225.541 101.897 225.549 101.852C225.905 99.9753 226.083 97.9877 226.083 95.889C226.083 94.5727 226.014 93.3014 225.877 92.0751C225.279 86.716 223.372 82.2151 220.158 78.5725C219.444 77.7635 218.666 76.9969 217.823 76.2726C217.318 75.8314 216.797 75.4108 216.26 75.0108C216.148 74.9273 216.035 74.8448 215.922 74.7632C210.751 71.0374 204.158 69.1745 196.142 69.1745H163.362V154.351H177.171V122.603H196.142ZM540.85 120.151V154.351H527.041V89.8234H538.785L540.075 101.438C540.557 100.264 541.098 99.1706 541.7 98.1568C542.568 96.6921 543.563 95.3946 544.683 94.2643C544.711 94.2362 544.739 94.2081 544.767 94.1802C546.405 92.5477 548.309 91.2692 550.478 90.3445C550.92 90.1561 551.373 89.9824 551.837 89.8234C552.181 89.7054 552.532 89.5955 552.888 89.4937C554.364 89.0722 555.943 88.7894 557.627 88.6453C558.213 88.595 558.812 88.5616 559.424 88.5451C559.725 88.5369 560.03 88.5328 560.337 88.5328C561.568 88.5328 562.799 88.6502 564.029 88.8849C564.089 88.8964 564.149 88.908 564.209 88.92C564.507 88.9598 564.794 89.0065 565.07 89.0601C565.985 89.2383 566.774 89.4927 567.435 89.8234L565.499 101.955C565.116 101.815 564.712 101.69 564.287 101.579C563.921 101.483 563.539 101.398 563.142 101.323C562.954 101.288 562.763 101.255 562.568 101.225C562.471 101.209 562.372 101.194 562.273 101.18C562.124 101.146 561.968 101.114 561.805 101.084L561.777 101.079C561.348 101.003 560.868 100.941 560.337 100.895C559.712 100.841 559.016 100.809 558.248 100.798C558.046 100.795 557.839 100.793 557.627 100.793C557.431 100.793 557.236 100.797 557.041 100.804C554.795 100.889 552.608 101.465 550.478 102.532C550.193 102.675 549.909 102.827 549.625 102.987C548.865 103.407 548.14 103.899 547.451 104.462C545.881 105.747 544.498 107.407 543.302 109.44C541.667 112.279 540.85 115.85 540.85 120.151ZM594.287 154.351H580.478V89.8234H594.287V154.351ZM592.802 77.7861C591.495 78.5257 589.865 78.9224 587.913 78.9764C587.76 78.9806 587.604 78.9827 587.447 78.9827C585.2 78.9827 583.336 78.5756 581.856 77.7613C581.706 77.6789 581.56 77.5923 581.418 77.5015C581.083 77.2872 580.769 77.0496 580.478 76.7888C578.929 75.2401 578.155 73.0892 578.155 70.336C578.155 69.4665 578.232 68.6614 578.386 67.9207C578.691 66.4586 579.297 65.2473 580.203 64.2867C580.292 64.1928 580.383 64.1014 580.478 64.0123C580.762 63.7579 581.067 63.5256 581.393 63.3154L581.418 63.2996L581.434 63.2896C582.977 62.3088 584.981 61.8184 587.447 61.8184C589.607 61.8184 591.392 62.2172 592.802 63.015C593.11 63.1892 593.4 63.3825 593.672 63.5949C593.841 63.7267 594.003 63.8658 594.158 64.0123C594.201 64.0513 594.244 64.0908 594.287 64.1307C595.168 64.9595 595.798 65.986 596.178 67.2102C596.466 68.1385 596.61 69.1804 596.61 70.336C596.61 72.9737 595.859 75.0586 594.359 76.5907C594.335 76.6152 594.311 76.6394 594.287 76.6636C594.244 76.7057 594.201 76.7475 594.158 76.7888C593.873 77.0573 593.566 77.3011 593.235 77.5203C593.095 77.6133 592.95 77.7019 592.802 77.7861ZM629.701 154.351H615.892V89.8234H628.153L628.798 100.922C630.381 97.7566 632.406 95.22 634.874 93.3123C635.76 92.6275 636.703 92.0238 637.703 91.5011C639.022 90.8271 640.39 90.2678 641.809 89.8234C643.507 89.2913 645.277 88.9237 647.119 88.7207C647.163 88.7158 647.208 88.7109 647.253 88.7062C648.257 88.6 649.283 88.5426 650.33 88.534C650.423 88.5332 650.515 88.5328 650.608 88.5328C653.298 88.5328 655.823 88.8471 658.183 89.4757C659.825 89.9128 661.386 90.5019 662.869 91.243C664.126 91.8276 665.293 92.5215 666.371 93.3246C666.498 93.4189 666.623 93.5147 666.747 93.612C666.918 93.7458 667.086 93.8824 667.252 94.0218C668.964 95.46 670.428 97.2009 671.644 99.2444C673.795 102.772 674.871 107.203 674.871 112.537V154.351H661.062V116.796C661.062 115.261 660.984 113.842 660.829 112.537C660.559 110.263 660.054 108.339 659.313 106.763C659.291 106.717 659.269 106.67 659.247 106.624C658.667 105.431 657.949 104.443 657.093 103.661L657.061 103.632C656.974 103.548 656.886 103.466 656.798 103.384C655.042 101.773 652.979 100.719 650.608 100.222C649.551 100.001 648.433 99.8897 647.253 99.8897C646.797 99.8897 646.344 99.9063 645.892 99.9396C644.722 100.026 643.566 100.224 642.425 100.534L642.333 100.559C641.205 100.872 640.092 101.294 638.993 101.826C637.721 102.441 636.547 103.252 635.471 104.259C634.291 105.363 633.228 106.703 632.282 108.278C630.562 111.204 629.701 115.118 629.701 120.022V154.351ZM702.684 148.591C701.353 147.482 700.128 146.252 699.011 144.901C697.817 143.457 696.745 141.875 695.796 140.155C693.788 136.454 692.513 132.249 691.969 127.542C691.767 125.793 691.666 123.975 691.666 122.087C691.666 119.026 691.923 116.156 692.438 113.476C692.499 113.16 692.563 112.847 692.631 112.537C693.297 109.485 694.309 106.688 695.667 104.149C697.286 101.163 699.248 98.5939 701.552 96.4416C701.871 96.1435 702.197 95.8533 702.529 95.5712C702.813 95.3299 703.102 95.0945 703.396 94.8649C703.44 94.8307 703.483 94.7966 703.527 94.7626C704.195 94.2473 704.887 93.7619 705.604 93.3064C706.026 93.0384 706.456 92.7808 706.895 92.5336C711.646 89.9035 717.066 88.5702 723.156 88.5336C723.242 88.5331 723.328 88.5328 723.414 88.5328C729.694 88.5328 735.029 89.8234 739.417 92.4045L739.506 92.4572L739.546 92.4809C740.773 93.2116 741.919 94.0172 742.984 94.8975C743.032 94.9373 743.08 94.9774 743.128 95.0176C743.588 95.4032 744.032 95.8031 744.461 96.217C746.475 98.1617 748.149 100.418 749.483 102.987C750.202 104.371 750.809 105.813 751.306 107.313C751.685 108.459 752 109.64 752.249 110.853C752.322 111.208 752.389 111.566 752.451 111.926C752.609 112.849 752.731 113.79 752.817 114.75C752.917 115.879 752.967 117.034 752.967 118.216C752.967 119.85 752.924 121.356 752.838 122.733C752.752 124.109 752.623 125.271 752.451 126.217H705.217C705.312 127.172 705.441 128.092 705.604 128.975C705.937 130.786 706.411 132.448 707.026 133.959L707.062 134.045C708.035 136.408 709.356 138.402 711.024 140.026C711.565 140.525 712.131 140.984 712.721 141.403L712.792 141.453C715.849 143.599 719.562 144.672 723.93 144.672C724.016 144.672 724.102 144.672 724.188 144.671C728.371 144.639 731.77 143.822 734.383 142.22C734.726 142.01 735.059 141.789 735.384 141.558L735.454 141.507C737.041 140.363 738.405 138.961 739.546 137.302C739.963 136.696 740.35 136.055 740.707 135.38L751.677 140.542C751.595 140.715 751.512 140.886 751.427 141.055C750.941 142.025 750.398 142.949 749.796 143.829C747.614 147.022 744.67 149.626 740.965 151.641C740.764 151.752 740.562 151.861 740.358 151.968C737.637 153.392 734.677 154.402 731.475 154.998C729.171 155.427 726.742 155.642 724.188 155.642C724.102 155.642 724.016 155.641 723.93 155.641C717.584 155.606 711.991 154.272 707.153 151.641C706.488 151.273 705.843 150.883 705.217 150.47C705.101 150.394 704.985 150.317 704.871 150.238C704.201 149.783 703.554 149.302 702.931 148.794C702.848 148.727 702.766 148.659 702.684 148.591ZM251.117 91.691C252.577 90.982 254.141 90.3924 255.808 89.9222C256.995 89.5872 258.235 89.3128 259.527 89.099C261.656 88.7466 263.928 88.5587 266.342 88.5353C266.513 88.5337 266.685 88.5328 266.858 88.5328C269.564 88.5328 272.112 88.7774 274.501 89.2666C276.592 89.6949 278.561 90.3107 280.409 91.1139C282.106 91.8002 283.645 92.6457 285.024 93.6505C285.153 93.7444 285.281 93.8397 285.407 93.9364L285.485 93.9969C286.353 94.6693 287.155 95.4082 287.89 96.2136C288.598 96.9901 289.245 97.8282 289.83 98.7282C291.671 101.387 292.782 104.614 293.164 108.407C293.264 109.401 293.314 110.433 293.314 111.505V140.284C293.314 140.315 293.315 140.346 293.315 140.377C293.321 140.968 293.383 141.504 293.501 141.984C293.538 142.135 293.58 142.28 293.628 142.419C293.799 142.913 294.038 143.337 294.347 143.692C294.363 143.711 294.38 143.73 294.396 143.748C295.071 144.491 296.062 144.918 297.369 145.03C297.434 145.035 297.5 145.04 297.566 145.044C297.735 145.054 297.91 145.059 298.089 145.059C298.888 145.059 299.676 145.002 300.452 144.887C301.18 144.78 301.898 144.622 302.606 144.414L301.832 153.964C301.083 154.322 300.26 154.612 299.364 154.835C299.069 154.908 298.767 154.974 298.456 155.033L298.381 155.046C298.285 155.064 298.188 155.081 298.089 155.098C297.055 155.27 295.935 155.365 294.73 155.381C294.603 155.383 294.475 155.384 294.347 155.384C292.834 155.384 291.413 155.234 290.083 154.935C288.387 154.553 286.84 153.928 285.442 153.061L285.409 153.04C285.173 152.893 284.945 152.738 284.724 152.577C282.819 151.187 281.459 149.28 280.644 146.858C280.577 146.66 280.514 146.459 280.455 146.255C280.439 146.201 280.424 146.146 280.409 146.092C278.926 148.378 276.976 150.265 274.561 151.753C274.412 151.844 274.261 151.935 274.109 152.023C273.306 152.49 272.454 152.915 271.553 153.298L271.504 153.319C271.317 153.394 271.129 153.467 270.942 153.538C270.2 153.821 269.458 154.075 268.716 154.3C268.55 154.351 268.384 154.4 268.217 154.447C267.589 154.628 266.96 154.788 266.331 154.927C265.13 155.194 263.929 155.385 262.728 155.503C261.782 155.595 260.835 155.642 259.889 155.642C256.888 155.642 254.137 155.289 251.634 154.583C250.277 154.2 248.993 153.713 247.783 153.123C247.581 153.025 247.382 152.924 247.185 152.82C246.303 152.355 245.461 151.833 244.66 151.254C240.704 148.392 238.683 144.129 238.598 138.466C238.596 138.342 238.595 138.216 238.595 138.09C238.595 137.774 238.602 137.461 238.616 137.152L238.62 137.058C238.831 132.786 240.372 129.215 243.241 126.346C243.533 126.062 243.836 125.785 244.15 125.517C245.434 124.419 246.9 123.455 248.548 122.625C248.624 122.586 248.701 122.548 248.779 122.51C249.231 122.287 249.697 122.075 250.176 121.872C250.862 121.582 251.576 121.312 252.318 121.062C252.628 120.957 252.942 120.856 253.262 120.759L253.332 120.738C254.389 120.418 255.5 120.136 256.663 119.893L279.634 115.376V112.924C279.634 112.438 279.619 111.965 279.588 111.505C279.466 109.663 279.097 108.022 278.483 106.584C278.429 106.459 278.373 106.335 278.316 106.212C278.094 105.739 277.845 105.288 277.567 104.86C277.123 104.177 276.608 103.553 276.021 102.987C275.925 102.887 275.827 102.79 275.728 102.694C275.645 102.614 275.561 102.536 275.476 102.459C275.279 102.28 275.075 102.109 274.866 101.946C272.777 100.316 270.108 99.4611 266.858 99.3799C266.688 99.3756 266.515 99.3735 266.342 99.3735C263.343 99.3735 260.653 99.9156 258.274 101C258.103 101.077 257.934 101.158 257.767 101.241C257.255 101.496 256.758 101.777 256.275 102.084C256.096 102.202 255.919 102.324 255.746 102.452C255.452 102.669 255.167 102.899 254.891 103.144C254.866 103.166 254.841 103.188 254.817 103.21C254.397 103.589 254 104 253.625 104.444C253.574 104.505 253.523 104.566 253.473 104.627C253.004 105.203 252.571 105.831 252.174 106.512C251.618 107.468 251.133 108.528 250.719 109.692C250.585 110.07 250.458 110.459 250.339 110.859L238.724 105.955C239.203 104.418 239.814 102.97 240.559 101.61C240.881 101.02 241.229 100.447 241.602 99.8911C242.571 98.4445 243.709 97.1105 245.015 95.889C246.005 94.9641 247.091 94.1037 248.274 93.3079C248.793 92.9652 249.327 92.6409 249.878 92.3351C249.926 92.3086 249.973 92.2822 250.021 92.256C250.278 92.1156 250.538 91.9791 250.802 91.8466C250.907 91.7941 251.012 91.7423 251.117 91.691ZM340.46 155.642L340.418 155.642C340.252 155.642 340.087 155.641 339.922 155.639C339.681 155.636 339.441 155.632 339.201 155.626C336.727 155.562 334.336 155.311 332.03 154.873C331.973 154.862 331.916 154.851 331.859 154.84C330.183 154.514 328.551 154.088 326.964 153.563C326.884 153.536 326.804 153.51 326.725 153.483C325.377 153.027 324.062 152.499 322.779 151.899C322.551 151.792 322.324 151.683 322.099 151.572C322.001 151.524 321.903 151.475 321.806 151.426C319.116 150.069 316.726 148.435 314.636 146.525C314.198 146.124 313.772 145.711 313.36 145.286C312.175 144.063 311.099 142.74 310.132 141.317L319.682 133.057C319.915 133.492 320.161 133.916 320.419 134.329C321.217 135.61 322.135 136.79 323.171 137.871C323.219 137.92 323.266 137.969 323.314 138.018C323.434 138.141 323.555 138.262 323.678 138.382C324.394 139.081 325.163 139.735 325.985 140.344C326.519 140.741 327.075 141.118 327.654 141.477C327.707 141.51 327.759 141.542 327.812 141.575C328.226 141.811 328.648 142.034 329.08 142.243C329.125 142.265 329.17 142.286 329.215 142.308C329.478 142.433 329.744 142.553 330.014 142.669C330.059 142.688 330.105 142.707 330.151 142.727C330.938 143.057 331.752 143.345 332.595 143.591C333.997 144.001 335.477 144.294 337.034 144.47C337.654 144.541 338.286 144.593 338.931 144.626C339.433 144.652 339.943 144.667 340.46 144.671C340.546 144.672 340.632 144.672 340.718 144.672C340.964 144.672 341.206 144.669 341.445 144.664C341.783 144.657 342.114 144.644 342.439 144.626C342.537 144.62 342.634 144.614 342.73 144.608C343.534 144.555 344.299 144.469 345.024 144.35C345.171 144.326 345.316 144.3 345.459 144.274C346.573 144.066 347.59 143.777 348.511 143.406C349.092 143.172 349.635 142.906 350.139 142.607C351.173 141.994 351.977 141.271 352.55 140.437C352.577 140.398 352.603 140.359 352.629 140.32C352.818 140.031 352.98 139.729 353.115 139.414C353.454 138.624 353.624 137.752 353.624 136.8C353.624 136.117 353.526 135.471 353.331 134.864C353.238 134.575 353.123 134.295 352.987 134.023C352.918 133.886 352.844 133.752 352.764 133.62C352.536 133.243 352.264 132.883 351.946 132.541C351.531 132.022 350.955 131.551 350.22 131.13C349.642 130.799 348.966 130.497 348.191 130.226C348.131 130.205 348.071 130.185 348.011 130.164C347.366 129.947 346.656 129.75 345.88 129.572L332.329 126.733C332.142 126.696 331.955 126.657 331.77 126.619L331.706 126.605C329.891 126.222 328.219 125.776 326.69 125.269C326.206 125.108 325.735 124.941 325.28 124.768C324.592 124.507 323.937 124.232 323.314 123.943C321.817 123.247 320.507 122.469 319.386 121.609C319.323 121.56 319.26 121.512 319.198 121.462C319.146 121.421 319.094 121.38 319.043 121.339C318.525 120.919 318.049 120.48 317.617 120.022C316.833 119.192 316.153 118.305 315.579 117.363C314.507 115.605 313.802 113.652 313.464 111.505C313.307 110.514 313.229 109.481 313.229 108.407C313.229 108.148 313.235 107.89 313.246 107.633C313.306 106.254 313.527 104.916 313.91 103.617C314.424 101.872 315.229 100.199 316.327 98.5992C317.507 96.947 318.959 95.4761 320.683 94.1865C321.65 93.4633 322.702 92.7972 323.84 92.1881L323.931 92.1393C324.434 91.8725 324.953 91.6167 325.489 91.3721C329.374 89.5143 334.046 88.5682 339.505 88.5338C339.608 88.5332 339.711 88.5328 339.815 88.5328C339.901 88.5328 339.987 88.533 340.073 88.5335C340.473 88.5355 340.87 88.5421 341.263 88.5533L341.406 88.5576C343.832 88.6341 346.12 88.8875 348.271 89.3181C350.589 89.7821 352.748 90.4519 354.746 91.3273C354.926 91.406 355.104 91.4863 355.281 91.5683C355.398 91.6226 355.515 91.6777 355.631 91.7335L355.672 91.7531C355.801 91.8154 355.93 91.8787 356.057 91.9428C356.107 91.9675 356.156 91.9924 356.205 92.0173C358.171 92.9642 359.937 94.0883 361.503 95.3897C363.221 96.8179 364.698 98.4597 365.934 100.315C366.233 100.763 366.517 101.223 366.787 101.696L357.237 109.698C357.117 109.459 356.994 109.224 356.868 108.993C356.758 108.795 356.647 108.599 356.532 108.407C356.405 108.194 356.275 107.985 356.142 107.78C356.11 107.731 356.078 107.682 356.046 107.633C355.272 106.468 354.393 105.434 353.407 104.531C353.345 104.474 353.283 104.418 353.22 104.362C352.794 103.985 352.349 103.631 351.885 103.3L351.865 103.286L351.817 103.252C351.74 103.198 351.662 103.144 351.584 103.091C351.539 103.061 351.493 103.03 351.448 103C351.314 102.912 351.179 102.825 351.042 102.74C351.008 102.719 350.974 102.698 350.94 102.677C350.898 102.652 350.856 102.626 350.813 102.601C350.51 102.419 350.199 102.247 349.881 102.084C347.433 100.724 344.877 99.9011 342.215 99.616C341.959 99.5887 341.703 99.5663 341.446 99.5488C340.991 99.518 340.534 99.5025 340.073 99.5025C339.986 99.5025 339.9 99.5029 339.815 99.5035C339.711 99.5043 339.608 99.5056 339.506 99.5073C339.449 99.5083 339.392 99.5094 339.335 99.5107C339.256 99.5124 339.177 99.5145 339.098 99.5168L339.014 99.5195C338.676 99.5305 338.345 99.5468 338.021 99.5686C337.933 99.5745 337.846 99.5808 337.759 99.5874C334.735 99.8197 332.294 100.529 330.436 101.714C330.378 101.751 330.321 101.788 330.265 101.826L330.262 101.827C329.216 102.512 328.414 103.3 327.857 104.192C327.509 104.75 327.257 105.348 327.101 105.987C327.079 106.075 327.06 106.163 327.042 106.253C326.953 106.694 326.909 107.154 326.909 107.633C326.909 107.894 326.926 108.153 326.959 108.407C327.054 109.145 327.288 109.855 327.66 110.537C327.963 111.093 328.358 111.631 328.845 112.15C329.988 113.293 331.94 114.199 334.702 114.87L334.81 114.896C335.133 114.973 335.468 115.047 335.814 115.118L350.526 118.216C351.243 118.355 351.935 118.506 352.602 118.668C353.057 118.779 353.5 118.895 353.931 119.016C355.107 119.347 356.197 119.717 357.202 120.127C359.198 120.941 360.857 121.911 362.18 123.037C362.449 123.266 362.703 123.501 362.944 123.742C363.161 123.96 363.366 124.182 363.561 124.41C366.142 127.249 367.432 130.734 367.432 134.864C367.432 135.522 367.405 136.167 367.351 136.8C367.326 137.086 367.296 137.37 367.26 137.651C367.246 137.765 367.23 137.878 367.214 137.99C366.984 139.576 366.575 141.074 365.984 142.485C365.485 143.677 364.857 144.808 364.1 145.876C363.514 146.704 362.85 147.494 362.109 148.247C361.523 148.842 360.888 149.414 360.205 149.963C358.938 150.959 357.548 151.824 356.036 152.558C354.598 153.256 353.05 153.836 351.391 154.297C348.233 155.174 344.676 155.622 340.718 155.641C340.632 155.641 340.546 155.642 340.46 155.642ZM387.695 121.609C387.99 121.836 388.299 122.057 388.621 122.272C390.364 123.438 392.489 124.437 394.998 125.269C395.504 125.437 396.025 125.597 396.562 125.752C397.649 126.064 398.8 126.348 400.015 126.605L400.079 126.619C400.264 126.657 400.45 126.696 400.638 126.733L414.189 129.572C414.965 129.75 415.675 129.947 416.319 130.164C416.354 130.176 416.388 130.188 416.422 130.199C416.448 130.208 416.474 130.217 416.499 130.226C417.42 130.548 418.201 130.912 418.842 131.319C419.43 131.691 419.9 132.098 420.254 132.541C420.572 132.883 420.845 133.243 421.072 133.62C421.152 133.752 421.227 133.886 421.295 134.023C421.432 134.295 421.547 134.575 421.639 134.864C421.835 135.471 421.932 136.117 421.932 136.8C421.932 137.752 421.763 138.624 421.424 139.414C421.289 139.729 421.127 140.031 420.937 140.32C420.912 140.359 420.886 140.398 420.859 140.437C420.788 140.54 420.714 140.641 420.636 140.741C420.083 141.448 419.354 142.07 418.448 142.607C417.145 143.379 415.585 143.935 413.768 144.274C413.625 144.3 413.48 144.326 413.333 144.35C412.607 144.469 411.843 144.555 411.039 144.608C410.942 144.614 410.845 144.62 410.748 144.626C410.423 144.644 410.091 144.657 409.754 144.664C409.514 144.669 409.272 144.672 409.027 144.672C408.94 144.672 408.854 144.672 408.769 144.671C408.251 144.667 407.742 144.652 407.239 144.626C406.595 144.593 405.962 144.541 405.342 144.47C402.849 144.187 400.555 143.606 398.459 142.727C398.414 142.707 398.368 142.688 398.322 142.669C398.053 142.553 397.786 142.433 397.523 142.308C397.478 142.286 397.433 142.265 397.388 142.243C397.321 142.21 397.254 142.177 397.188 142.144C397.105 142.103 397.023 142.062 396.942 142.02C396.664 141.877 396.391 141.729 396.121 141.575C396.094 141.558 396.067 141.541 396.04 141.525C396.014 141.509 395.988 141.493 395.963 141.477C395.384 141.118 394.827 140.741 394.293 140.344C393.472 139.735 392.703 139.081 391.987 138.382C390.891 137.313 389.92 136.14 389.071 134.864C388.954 134.688 388.84 134.509 388.727 134.329C388.469 133.916 388.224 133.492 387.991 133.057L378.44 141.317C379.619 143.052 380.959 144.637 382.462 146.073C382.621 146.225 382.782 146.376 382.945 146.525C385.035 148.435 387.425 150.069 390.114 151.426C390.212 151.475 390.31 151.524 390.408 151.572C390.633 151.683 390.859 151.792 391.088 151.899C392.053 152.35 393.036 152.761 394.038 153.131C394.368 153.253 394.7 153.37 395.033 153.483C395.113 153.51 395.192 153.536 395.272 153.563C396.913 154.106 398.602 154.542 400.339 154.873C402.645 155.311 405.035 155.562 407.509 155.626C407.749 155.632 407.99 155.636 408.231 155.639C408.396 155.641 408.561 155.642 408.727 155.642L408.769 155.642C408.855 155.642 408.941 155.641 409.027 155.641C415.064 155.613 420.17 154.585 424.345 152.558C424.541 152.463 424.735 152.365 424.928 152.266C426.216 151.597 427.411 150.83 428.514 149.963C431.407 147.639 433.431 144.896 434.587 141.734C435.021 140.545 435.333 139.298 435.523 137.99C435.579 137.599 435.625 137.202 435.659 136.8C435.714 136.167 435.741 135.522 435.741 134.864C435.741 132.712 435.391 130.735 434.69 128.933C434.052 127.293 433.123 125.798 431.904 124.448L431.869 124.41C431.675 124.182 431.469 123.96 431.253 123.742C431.012 123.501 430.757 123.266 430.489 123.037C430.101 122.707 429.685 122.391 429.239 122.087C427.399 120.834 425.066 119.811 422.24 119.016C421.175 118.717 420.04 118.45 418.835 118.216L404.123 115.118C403.777 115.047 403.442 114.973 403.118 114.896L403.011 114.87C400.249 114.199 398.296 113.293 397.154 112.15C396.667 111.631 396.272 111.093 395.969 110.537C395.849 110.318 395.744 110.096 395.653 109.871C395.461 109.396 395.332 108.908 395.267 108.407C395.234 108.153 395.218 107.894 395.218 107.633C395.218 107.154 395.262 106.694 395.35 106.253C395.368 106.163 395.388 106.075 395.409 105.987C395.566 105.348 395.818 104.75 396.166 104.192C396.335 103.922 396.526 103.662 396.739 103.41C397.23 102.832 397.841 102.304 398.571 101.827L398.573 101.826C398.609 101.802 398.645 101.778 398.681 101.755C398.702 101.741 398.723 101.728 398.744 101.714C400.603 100.529 403.044 99.8197 406.067 99.5874C406.154 99.5808 406.242 99.5745 406.33 99.5686C406.654 99.5468 406.985 99.5305 407.322 99.5195L407.407 99.5168C407.458 99.5153 407.51 99.5139 407.561 99.5126L407.644 99.5107C407.701 99.5094 407.757 99.5083 407.814 99.5073C407.867 99.5064 407.92 99.5056 407.973 99.505C408.023 99.5044 408.073 99.5039 408.123 99.5035C408.209 99.5029 408.295 99.5025 408.381 99.5025C408.842 99.5025 409.3 99.518 409.755 99.5488C410.012 99.5663 410.268 99.5887 410.523 99.616C413.186 99.9011 415.742 100.724 418.19 102.084C418.508 102.247 418.818 102.419 419.122 102.601C419.199 102.646 419.275 102.693 419.351 102.74C419.487 102.825 419.623 102.912 419.756 103C419.897 103.093 420.036 103.189 420.174 103.286L420.194 103.3C420.254 103.343 420.313 103.386 420.372 103.429C420.438 103.477 420.503 103.526 420.568 103.575C420.899 103.825 421.219 104.087 421.529 104.362C421.563 104.393 421.598 104.424 421.632 104.455C421.66 104.48 421.688 104.506 421.716 104.531C422.701 105.434 423.581 106.468 424.354 107.633C424.386 107.682 424.419 107.731 424.45 107.78C424.704 108.17 424.946 108.574 425.176 108.993C425.303 109.224 425.426 109.459 425.546 109.698L435.096 101.696C435.066 101.644 435.035 101.591 435.005 101.538C434.987 101.508 434.97 101.479 434.952 101.449C433.586 99.122 431.872 97.1023 429.812 95.3897C428.312 94.1428 426.627 93.0587 424.759 92.1373C424.678 92.097 424.596 92.057 424.513 92.0173C424.464 91.9924 424.415 91.9675 424.366 91.9428C424.238 91.8787 424.11 91.8154 423.98 91.7531L423.94 91.7335C423.823 91.6777 423.707 91.6226 423.589 91.5683C421.443 90.5739 419.106 89.8238 416.58 89.3181C414.429 88.8876 412.14 88.634 409.714 88.5576L409.572 88.5533C409.179 88.5421 408.782 88.5355 408.381 88.5335C408.295 88.533 408.209 88.5328 408.123 88.5328C408.02 88.5328 407.917 88.5332 407.814 88.5338C402.811 88.5653 398.47 89.3624 394.789 90.925C394.453 91.0677 394.123 91.2167 393.798 91.3721C393.262 91.6167 392.743 91.8725 392.24 92.1393L392.148 92.1881C388.981 93.8835 386.477 96.0205 384.635 98.5992C384.003 99.521 383.468 100.467 383.029 101.437C382.706 102.151 382.436 102.878 382.218 103.617C381.836 104.916 381.615 106.254 381.555 107.633C381.548 107.776 381.544 107.92 381.541 108.065C381.539 108.179 381.538 108.293 381.538 108.407C381.538 108.629 381.541 108.85 381.548 109.068C381.681 113.422 383.14 117.073 385.926 120.022C386.358 120.48 386.833 120.919 387.352 121.339C387.464 121.43 387.578 121.52 387.695 121.609ZM459.319 148.591C457.987 147.482 456.763 146.252 455.646 144.901C454.451 143.457 453.38 141.875 452.431 140.155C452.235 139.795 452.047 139.431 451.866 139.061C451.505 138.326 451.172 137.572 450.865 136.8C450.615 136.167 450.383 135.522 450.169 134.864C449.597 133.104 449.156 131.254 448.847 129.313C448.754 128.731 448.673 128.14 448.604 127.542C448.402 125.793 448.301 123.975 448.301 122.087C448.301 121.715 448.305 121.346 448.312 120.98C448.336 119.854 448.395 118.755 448.49 117.683C448.619 116.232 448.813 114.83 449.073 113.476C449.396 111.791 449.822 110.182 450.349 108.648C450.532 108.116 450.727 107.593 450.934 107.078C451.343 106.067 451.798 105.09 452.302 104.149C452.51 103.764 452.725 103.386 452.945 103.015C454.432 100.507 456.18 98.3164 458.186 96.4416C458.779 95.8885 459.393 95.363 460.03 94.8649C460.074 94.8307 460.118 94.7966 460.162 94.7626C460.83 94.2473 461.522 93.7619 462.239 93.3064C462.66 93.0384 463.091 92.7808 463.529 92.5336C463.568 92.5122 463.607 92.4909 463.645 92.4698C468.368 89.8819 473.75 88.5699 479.79 88.5336C479.838 88.5333 479.886 88.5331 479.934 88.533L480.048 88.5328C486.329 88.5328 491.663 89.8234 496.051 92.4045C496.094 92.4299 496.138 92.4553 496.18 92.4809C496.472 92.6543 496.759 92.832 497.041 93.0138C497.948 93.5982 498.807 94.2261 499.619 94.8975C499.667 94.9373 499.715 94.9774 499.763 95.0176C500.223 95.4032 500.667 95.8031 501.096 96.217C503.11 98.1617 504.784 100.418 506.118 102.987C506.836 104.371 507.444 105.813 507.94 107.313C508.32 108.459 508.634 109.64 508.884 110.853C508.957 111.208 509.024 111.566 509.086 111.926C509.244 112.849 509.366 113.79 509.451 114.75C509.552 115.879 509.602 117.034 509.602 118.216C509.602 119.85 509.559 121.356 509.473 122.733C509.387 124.109 509.258 125.271 509.086 126.217H461.852C461.947 127.172 462.076 128.092 462.239 128.975C462.572 130.786 463.046 132.448 463.661 133.959L463.696 134.045C463.811 134.323 463.93 134.596 464.055 134.864C464.523 135.875 465.061 136.813 465.667 137.678C466.264 138.532 466.928 139.314 467.659 140.026C468.2 140.525 468.765 140.984 469.355 141.403L469.427 141.453C472.484 143.599 476.197 144.672 480.565 144.672C480.612 144.672 480.658 144.672 480.705 144.672C480.744 144.671 480.784 144.671 480.823 144.671C485.006 144.639 488.405 143.822 491.018 142.22C491.361 142.01 491.694 141.789 492.018 141.558L492.089 141.507C493.676 140.363 495.04 138.961 496.18 137.302C496.483 136.862 496.77 136.404 497.041 135.928C497.143 135.748 497.244 135.565 497.342 135.38L508.312 140.542C508.266 140.639 508.22 140.735 508.173 140.831C508.136 140.906 508.099 140.981 508.062 141.055C507.576 142.025 507.032 142.949 506.431 143.829C504.248 147.022 501.305 149.626 497.6 151.641C497.52 151.686 497.439 151.73 497.358 151.773C497.253 151.831 497.147 151.887 497.041 151.943L496.993 151.968C494.272 153.392 491.311 154.402 488.11 154.998C485.805 155.427 483.376 155.642 480.823 155.642C480.737 155.642 480.651 155.641 480.565 155.641C474.219 155.606 468.626 154.272 463.787 151.641C463.54 151.504 463.294 151.363 463.052 151.22C462.644 150.979 462.244 150.729 461.852 150.47C461.058 149.947 460.296 149.388 459.565 148.794C459.483 148.727 459.401 148.659 459.319 148.591Z" fill="#3300BB"/>
</svg>
