<svg width="2558" height="600" viewBox="0 0 2558 600" fill="none" xmlns="http://www.w3.org/2000/svg">
<rect width="2558" height="600" rx="60" fill="white"/>
<path d="M278.381 189.986C485.594 -102.849 356.392 271.784 308.985 360.837C281.446 412.568 246.89 400.414 215.077 408.473C188.427 415.224 172.198 442.675 172.198 474.258C237.983 408.473 267.323 457.068 422.349 474.258H172.198C136.033 438.092 152.725 367.564 278.381 189.986Z" fill="#FF314A"/>
<path d="M627.163 197.779C656.049 197.779 679.157 205.344 696.489 220.475C714.096 235.606 722.899 256.514 722.899 283.199C722.899 309.609 714.096 330.516 696.489 345.922C679.157 361.053 656.049 368.618 627.163 368.618H566.503V470.131H522.349V197.779H627.163ZM620.148 330.654C639.68 330.654 653.986 326.665 663.064 318.687C672.417 310.709 677.094 298.88 677.094 283.199C677.094 267.518 672.417 255.688 663.064 247.71C653.986 239.457 639.68 235.331 620.148 235.331H566.503V330.654H620.148Z" fill="black"/>
<path d="M894.131 337.669C894.131 323.914 890.28 313.322 882.577 305.895C875.149 298.192 864.833 294.34 851.628 294.34C839.248 294.34 828.519 297.229 819.441 303.006C810.637 308.783 804.31 318.137 800.459 331.067L763.32 315.386C768.547 298.604 778.725 285.124 793.856 274.946C809.262 264.767 829.069 259.677 853.278 259.677C869.509 259.677 883.952 262.428 896.607 267.93C909.537 273.157 919.578 281.273 926.731 292.277C934.159 303.006 937.873 316.624 937.873 333.13V425.152C937.873 435.331 942.962 440.42 953.141 440.42C958.093 440.42 962.907 439.732 967.584 438.357L965.108 468.893C958.78 471.919 950.802 473.433 941.174 473.433C930.17 473.433 920.679 470.957 912.701 466.005C904.723 461.053 899.358 453.625 896.607 443.721C890.005 453.9 880.514 461.603 868.134 466.83C855.754 471.782 843.375 474.258 830.995 474.258C811.463 474.258 795.232 469.581 782.302 460.228C769.372 450.874 762.907 436.844 762.907 418.137C762.907 403.006 767.859 390.489 777.763 380.585C787.941 370.681 802.247 363.804 820.679 359.952L894.131 345.51V337.669ZM807.474 414.836C807.474 422.538 810.362 428.728 816.139 433.405C822.192 437.807 830.17 440.007 840.073 440.007C849.427 440.007 858.23 438.494 866.483 435.468C874.736 432.442 881.339 427.49 886.291 420.613C891.518 413.735 894.131 404.794 894.131 393.79V376.459L842.137 387.188C830.307 389.389 821.504 392.552 815.727 396.679C810.225 400.805 807.474 406.858 807.474 414.836Z" fill="black"/>
<path d="M1088.62 474.258C1067.99 474.258 1049.14 470.269 1032.09 462.291C1015.03 454.313 1001.55 443.034 991.647 428.453L1022.18 402.043C1028.24 413.322 1036.9 422.401 1048.18 429.278C1059.73 435.881 1073.49 439.182 1089.45 439.182C1102.1 439.182 1112.14 436.981 1119.57 432.58C1127 428.178 1130.71 421.988 1130.71 414.01C1130.71 408.783 1128.92 404.244 1125.35 400.393C1122.05 396.266 1115.58 393.102 1105.95 390.902L1062.62 381.823C1040.62 377.422 1024.93 370.269 1015.58 360.365C1006.23 350.461 1001.55 338.082 1001.55 323.226C1001.55 311.947 1004.85 301.493 1011.45 291.864C1018.33 282.236 1028.1 274.533 1040.75 268.756C1053.41 262.703 1068.68 259.677 1086.56 259.677C1106.91 259.677 1124.38 263.391 1138.96 270.819C1153.82 277.972 1165.1 288.288 1172.8 301.768L1142.27 327.353C1136.76 316.349 1128.92 308.233 1118.74 303.006C1108.84 297.504 1098.39 294.753 1087.38 294.753C1073.9 294.753 1063.45 297.229 1056.02 302.181C1048.87 306.858 1045.29 313.047 1045.29 320.75C1045.29 325.977 1047.36 330.792 1051.48 335.193C1055.61 339.32 1063.04 342.483 1073.76 344.684L1120.81 354.588C1140.62 358.439 1154.51 365.042 1162.49 374.395C1170.74 383.474 1174.87 394.615 1174.87 407.82C1174.87 427.628 1167.16 443.721 1151.76 456.101C1136.35 468.206 1115.31 474.258 1088.62 474.258Z" fill="black"/>
<path d="M1307.04 474.258C1286.4 474.258 1267.56 470.269 1250.5 462.291C1233.45 454.313 1219.97 443.034 1210.06 428.453L1240.6 402.043C1246.65 413.322 1255.32 422.401 1266.6 429.278C1278.15 435.881 1291.91 439.182 1307.86 439.182C1320.52 439.182 1330.56 436.981 1337.99 432.58C1345.41 428.178 1349.13 421.988 1349.13 414.01C1349.13 408.783 1347.34 404.244 1343.76 400.393C1340.46 396.266 1334 393.102 1324.37 390.902L1281.04 381.823C1259.03 377.422 1243.35 370.269 1234 360.365C1224.64 350.461 1219.97 338.082 1219.97 323.226C1219.97 311.947 1223.27 301.493 1229.87 291.864C1236.75 282.236 1246.51 274.533 1259.17 268.756C1271.82 262.703 1287.09 259.677 1304.97 259.677C1325.33 259.677 1342.8 263.391 1357.38 270.819C1372.24 277.972 1383.52 288.288 1391.22 301.768L1360.68 327.353C1355.18 316.349 1347.34 308.233 1337.16 303.006C1327.26 297.504 1316.8 294.753 1305.8 294.753C1292.32 294.753 1281.87 297.229 1274.44 302.181C1267.28 306.858 1263.71 313.047 1263.71 320.75C1263.71 325.977 1265.77 330.792 1269.9 335.193C1274.03 339.32 1281.45 342.483 1292.18 344.684L1339.22 354.588C1359.03 358.439 1372.92 365.042 1380.9 374.395C1389.16 383.474 1393.28 394.615 1393.28 407.82C1393.28 427.628 1385.58 443.721 1370.17 456.101C1354.77 468.206 1333.72 474.258 1307.04 474.258Z" fill="black"/>
<path d="M1537.43 474.258C1516.8 474.258 1498.64 469.994 1482.96 461.466C1467.55 452.937 1455.45 440.695 1446.65 424.739C1437.84 408.508 1433.44 389.251 1433.44 366.968C1433.44 344.684 1437.71 325.565 1446.23 309.609C1455.04 293.377 1467 280.998 1482.14 272.47C1497.54 263.941 1515.15 259.677 1534.95 259.677C1555.04 259.677 1572.09 263.804 1586.12 272.057C1600.15 280.31 1610.88 291.589 1618.31 305.895C1625.74 320.2 1629.45 336.431 1629.45 354.588C1629.45 359.815 1629.32 364.629 1629.04 369.031C1628.77 373.433 1628.35 377.146 1627.8 380.173H1476.77C1478.7 399.43 1484.89 414.148 1495.34 424.327C1506.07 434.23 1519.82 439.182 1536.61 439.182C1550.36 439.182 1561.5 436.569 1570.03 431.342C1578.56 426.115 1585.3 418.825 1590.25 409.471L1625.33 425.977C1618.17 441.108 1606.76 452.937 1591.08 461.466C1575.67 469.994 1557.79 474.258 1537.43 474.258ZM1534.13 294.753C1519 294.753 1506.48 299.155 1496.58 307.958C1486.95 316.761 1480.76 329.554 1478.01 346.335H1586.54C1585.44 329.829 1580.21 317.174 1570.86 308.371C1561.5 299.292 1549.26 294.753 1534.13 294.753Z" fill="black"/>
<path d="M1685.21 470.131V263.804H1722.76L1726.89 300.943C1738.17 273.432 1759.77 259.677 1791.68 259.677C1795.8 259.677 1799.93 260.09 1804.06 260.915C1808.18 261.466 1811.62 262.428 1814.37 263.804L1808.18 302.593C1805.16 301.493 1801.72 300.668 1797.87 300.118C1794.29 299.292 1789.34 298.88 1783.01 298.88C1774.21 298.88 1765.68 301.218 1757.43 305.895C1749.45 310.296 1742.71 317.174 1737.21 326.527C1731.98 335.606 1729.37 347.023 1729.37 360.778V470.131H1685.21Z" fill="black"/>
<path d="M1878.36 229.141C1868.73 229.141 1861.3 226.803 1856.08 222.126C1851.13 217.174 1848.65 210.296 1848.65 201.493C1848.65 192.69 1851.13 185.95 1856.08 181.273C1861.3 176.596 1868.73 174.258 1878.36 174.258C1887.71 174.258 1894.87 176.596 1899.82 181.273C1905.05 185.95 1907.66 192.69 1907.66 201.493C1907.66 210.296 1905.05 217.174 1899.82 222.126C1894.87 226.803 1887.71 229.141 1878.36 229.141ZM1900.23 263.804V470.131H1856.08V263.804H1900.23Z" fill="black"/>
<path d="M1969.32 470.131V263.804H2008.52L2010.58 299.292C2017.46 285.537 2026.95 275.496 2039.05 269.168C2051.43 262.841 2065.19 259.677 2080.32 259.677C2094.9 259.677 2107.97 262.566 2119.52 268.343C2131.35 273.845 2140.71 282.373 2147.58 293.928C2154.46 305.207 2157.9 319.375 2157.9 336.431V470.131H2113.75V350.049C2113.75 329.691 2109.48 315.661 2100.95 307.958C2092.7 299.98 2082.25 295.991 2069.59 295.991C2060.51 295.991 2051.71 298.054 2043.18 302.181C2034.65 306.307 2027.5 313.185 2021.72 322.814C2016.22 332.167 2013.47 344.684 2013.47 360.365V470.131H1969.32Z" fill="black"/>
<path d="M2315.59 474.258C2294.96 474.258 2276.8 469.994 2261.12 461.466C2245.72 452.937 2233.61 440.695 2224.81 424.739C2216 408.508 2211.6 389.251 2211.6 366.968C2211.6 344.684 2215.87 325.565 2224.39 309.609C2233.2 293.377 2245.16 280.998 2260.3 272.47C2275.7 263.941 2293.31 259.677 2313.12 259.677C2333.2 259.677 2350.25 263.804 2364.28 272.057C2378.31 280.31 2389.04 291.589 2396.47 305.895C2403.9 320.2 2407.61 336.431 2407.61 354.588C2407.61 359.815 2407.48 364.629 2407.2 369.031C2406.93 373.433 2406.51 377.146 2405.96 380.173H2254.93C2256.86 399.43 2263.05 414.148 2273.5 424.327C2284.23 434.23 2297.98 439.182 2314.77 439.182C2328.52 439.182 2339.66 436.569 2348.19 431.342C2356.72 426.115 2363.46 418.825 2368.41 409.471L2403.49 425.977C2396.33 441.108 2384.92 452.937 2369.24 461.466C2353.83 469.994 2335.95 474.258 2315.59 474.258ZM2312.29 294.753C2297.16 294.753 2284.64 299.155 2274.74 307.958C2265.11 316.761 2258.92 329.554 2256.17 346.335H2364.7C2363.6 329.829 2358.37 317.174 2349.02 308.371C2339.66 299.292 2327.42 294.753 2312.29 294.753Z" fill="black"/>
</svg>
