<svg width="800" height="188" viewBox="0 0 800 188" fill="none" xmlns="http://www.w3.org/2000/svg">
<rect width="800" height="187.647" rx="10" fill="white"/>
<path d="M196.142 61.8542C205.176 61.8542 212.403 64.2202 217.823 68.9523C223.329 73.6843 226.083 80.2231 226.083 88.5687C226.083 96.8282 223.329 103.367 217.823 108.185C212.403 112.917 205.176 115.283 196.142 115.283H177.171V147.031H163.362V61.8542H196.142ZM193.948 103.41C200.056 103.41 204.53 102.163 207.369 99.6674C210.295 97.1724 211.757 93.4728 211.757 88.5687C211.757 83.6646 210.295 79.965 207.369 77.4699C204.53 74.8888 200.056 73.5983 193.948 73.5983H177.171V103.41H193.948Z" fill="black"/>
<path d="M279.634 105.604C279.634 101.302 278.43 97.9897 276.021 95.6667C273.698 93.2577 270.472 92.0532 266.342 92.0532C262.47 92.0532 259.115 92.9566 256.275 94.7633C253.522 96.5701 251.543 99.4954 250.339 103.539L238.724 98.635C240.359 93.3867 243.542 89.1709 248.274 85.9876C253.092 82.8042 259.287 81.2125 266.858 81.2125C271.934 81.2125 276.451 82.0729 280.409 83.7936C284.453 85.4283 287.593 87.9664 289.83 91.4079C292.153 94.7633 293.314 99.0222 293.314 104.184V132.964C293.314 136.147 294.906 137.739 298.089 137.739C299.638 137.739 301.144 137.524 302.606 137.094L301.832 146.644C299.853 147.59 297.358 148.063 294.347 148.063C290.905 148.063 287.937 147.289 285.442 145.74C282.947 144.192 281.269 141.869 280.409 138.771C278.344 141.955 275.376 144.364 271.504 145.998C267.632 147.547 263.761 148.321 259.889 148.321C253.78 148.321 248.704 146.859 244.66 143.933C240.617 141.008 238.595 136.62 238.595 130.77C238.595 126.038 240.144 122.123 243.241 119.026C246.424 115.928 250.898 113.778 256.663 112.573L279.634 108.056V105.604ZM252.533 129.737C252.533 132.146 253.436 134.082 255.243 135.545C257.136 136.921 259.631 137.61 262.728 137.61C265.653 137.61 268.407 137.137 270.988 136.19C273.569 135.244 275.634 133.695 277.182 131.544C278.817 129.393 279.634 126.597 279.634 123.156V117.735L263.373 121.091C259.674 121.779 256.921 122.768 255.114 124.059C253.393 125.349 252.533 127.242 252.533 129.737Z" fill="black"/>
<path d="M340.46 148.321C334.007 148.321 328.114 147.074 322.779 144.579C317.445 142.084 313.229 138.556 310.132 133.996L319.682 125.737C321.575 129.264 324.285 132.103 327.812 134.254C331.426 136.319 335.728 137.352 340.718 137.352C344.676 137.352 347.816 136.663 350.139 135.287C352.462 133.91 353.624 131.974 353.624 129.479C353.624 127.845 353.064 126.425 351.946 125.22C350.913 123.93 348.892 122.94 345.88 122.252L332.329 119.413C325.446 118.036 320.542 115.799 317.617 112.702C314.692 109.605 313.229 105.733 313.229 101.087C313.229 97.5595 314.262 94.2901 316.327 91.2788C318.477 88.2676 321.532 85.8585 325.489 84.0517C329.447 82.1589 334.222 81.2125 339.815 81.2125C346.181 81.2125 351.645 82.374 356.205 84.697C360.851 86.934 364.378 90.1604 366.787 94.3762L357.237 102.378C355.516 98.9361 353.064 96.398 349.881 94.7633C346.784 93.0426 343.514 92.1822 340.073 92.1822C335.857 92.1822 332.588 92.9566 330.265 94.5052C328.028 95.9679 326.909 97.9037 326.909 100.313C326.909 101.947 327.554 103.453 328.845 104.83C330.135 106.12 332.458 107.11 335.814 107.798L350.526 110.895C356.721 112.1 361.066 114.165 363.561 117.09C366.142 119.929 367.432 123.414 367.432 127.543C367.432 133.738 365.023 138.771 360.205 142.643C355.387 146.429 348.805 148.321 340.46 148.321Z" fill="black"/>
<path d="M408.769 148.321C402.316 148.321 396.422 147.074 391.088 144.579C385.754 142.084 381.538 138.556 378.441 133.996L387.991 125.737C389.883 129.264 392.594 132.103 396.121 134.254C399.735 136.319 404.036 137.352 409.027 137.352C412.984 137.352 416.125 136.663 418.448 135.287C420.771 133.91 421.932 131.974 421.932 129.479C421.932 127.845 421.373 126.425 420.254 125.22C419.222 123.93 417.2 122.94 414.189 122.252L400.638 119.413C393.755 118.036 388.851 115.799 385.926 112.702C383 109.605 381.538 105.733 381.538 101.087C381.538 97.5595 382.57 94.2901 384.635 91.2788C386.786 88.2676 389.84 85.8585 393.798 84.0517C397.756 82.1589 402.531 81.2125 408.123 81.2125C414.49 81.2125 419.953 82.374 424.513 84.697C429.159 86.934 432.687 90.1604 435.096 94.3762L425.546 102.378C423.825 98.9361 421.373 96.398 418.19 94.7633C415.092 93.0426 411.823 92.1822 408.381 92.1822C404.166 92.1822 400.896 92.9566 398.573 94.5052C396.336 95.9679 395.218 97.9037 395.218 100.313C395.218 101.947 395.863 103.453 397.154 104.83C398.444 106.12 400.767 107.11 404.123 107.798L418.835 110.895C425.03 112.1 429.374 114.165 431.869 117.09C434.451 119.929 435.741 123.414 435.741 127.543C435.741 133.738 433.332 138.771 428.514 142.643C423.696 146.429 417.114 148.321 408.769 148.321Z" fill="black"/>
<path d="M480.823 148.321C474.37 148.321 468.692 146.988 463.787 144.321C458.969 141.653 455.184 137.825 452.431 132.835C449.677 127.759 448.301 121.736 448.301 114.767C448.301 107.798 449.634 101.818 452.302 96.8282C455.055 91.7521 458.797 87.8804 463.529 85.2132C468.347 82.5461 473.854 81.2125 480.048 81.2125C486.329 81.2125 491.663 82.5031 496.051 85.0842C500.439 87.6653 503.795 91.1928 506.118 95.6667C508.441 100.141 509.602 105.217 509.602 110.895C509.602 112.53 509.559 114.036 509.473 115.412C509.387 116.789 509.258 117.95 509.086 118.897H461.852C462.454 124.919 464.39 129.522 467.659 132.706C471.015 135.803 475.316 137.352 480.565 137.352C484.867 137.352 488.351 136.534 491.018 134.9C493.685 133.265 495.793 130.985 497.342 128.06L508.312 133.222C506.075 137.954 502.504 141.653 497.6 144.321C492.782 146.988 487.19 148.321 480.823 148.321ZM479.79 92.1822C475.058 92.1822 471.144 93.5588 468.046 96.312C465.035 99.0652 463.099 103.066 462.239 108.314H496.18C495.836 103.152 494.202 99.1942 491.276 96.4411C488.351 93.6018 484.522 92.1822 479.79 92.1822Z" fill="black"/>
<path d="M527.041 147.031V82.5031H538.785L540.075 94.1181C543.603 85.5144 550.357 81.2125 560.337 81.2125C561.628 81.2125 562.918 81.3416 564.209 81.5997C565.499 81.7718 566.575 82.0729 567.435 82.5031L565.499 94.6343C564.553 94.2901 563.477 94.032 562.273 93.86C561.154 93.6018 559.606 93.4728 557.627 93.4728C554.874 93.4728 552.207 94.2041 549.625 95.6667C547.13 97.0433 545.023 99.1942 543.302 102.12C541.667 104.959 540.85 108.529 540.85 112.831V147.031H527.041Z" fill="black"/>
<path d="M587.447 71.6624C584.436 71.6624 582.112 70.9311 580.478 69.4685C578.929 67.9198 578.155 65.7689 578.155 63.0157C578.155 60.2625 578.929 58.1546 580.478 56.692C582.112 55.2294 584.436 54.498 587.447 54.498C590.372 54.498 592.609 55.2294 594.158 56.692C595.792 58.1546 596.61 60.2625 596.61 63.0157C596.61 65.7689 595.792 67.9198 594.158 69.4685C592.609 70.9311 590.372 71.6624 587.447 71.6624ZM594.287 82.5031V147.031H580.478V82.5031H594.287Z" fill="black"/>
<path d="M615.892 147.031V82.5031H628.153L628.798 93.6018C630.949 89.3 633.917 86.1596 637.703 84.1808C641.574 82.2019 645.876 81.2125 650.608 81.2125C655.168 81.2125 659.255 82.1159 662.869 83.9227C666.568 85.6434 669.493 88.3106 671.644 91.9241C673.795 95.4516 674.871 99.8825 674.871 105.217V147.031H661.062V109.476C661.062 103.109 659.728 98.721 657.061 96.312C654.48 93.8169 651.211 92.5694 647.253 92.5694C644.414 92.5694 641.661 93.2147 638.993 94.5052C636.326 95.7958 634.089 97.9467 632.282 100.958C630.562 103.883 629.701 107.798 629.701 112.702V147.031H615.892Z" fill="black"/>
<path d="M724.188 148.321C717.735 148.321 712.057 146.988 707.153 144.321C702.335 141.653 698.549 137.825 695.796 132.835C693.043 127.759 691.666 121.736 691.666 114.767C691.666 107.798 693 101.818 695.667 96.8282C698.42 91.7521 702.163 87.8804 706.895 85.2132C711.713 82.5461 717.219 81.2125 723.414 81.2125C729.694 81.2125 735.029 82.5031 739.417 85.0842C743.805 87.6653 747.16 91.1928 749.483 95.6667C751.806 100.141 752.967 105.217 752.967 110.895C752.967 112.53 752.924 114.036 752.838 115.412C752.752 116.789 752.623 117.95 752.451 118.897H705.217C705.819 124.919 707.755 129.522 711.024 132.706C714.38 135.803 718.682 137.352 723.93 137.352C728.232 137.352 731.716 136.534 734.383 134.9C737.051 133.265 739.159 130.985 740.707 128.06L751.677 133.222C749.44 137.954 745.869 141.653 740.965 144.321C736.147 146.988 730.555 148.321 724.188 148.321ZM723.156 92.1822C718.424 92.1822 714.509 93.5588 711.412 96.312C708.4 99.0652 706.464 103.066 705.604 108.314H739.546C739.202 103.152 737.567 99.1942 734.642 96.4411C731.716 93.6018 727.888 92.1822 723.156 92.1822Z" fill="black"/>
<path d="M87.0621 59.4173C151.867 -32.1654 111.46 84.9989 96.6332 112.85C88.0206 129.028 77.2135 125.227 67.2643 127.748C58.9297 129.859 53.8542 138.444 53.8542 148.322C74.428 127.748 83.6037 142.945 132.087 148.322H53.8542C42.5436 137.011 47.764 114.954 87.0621 59.4173Z" fill="#FF314A"/>
</svg>
