<svg width="512" height="512" viewBox="0 0 512 512" fill="none" xmlns="http://www.w3.org/2000/svg">
<path fill-rule="evenodd" clip-rule="evenodd" d="M256 448C362.039 448 448 362.039 448 256C448 149.961 362.039 64 256 64C149.961 64 64 149.961 64 256C64 362.039 149.961 448 256 448ZM135.603 365.5L135.745 365.533C142.474 367.111 175.078 374.759 177.977 369.695C178.595 368.616 179.787 365.914 181.454 362.138C189.629 343.611 209.218 299.222 228.412 293.654C226.489 329.651 313.492 355.321 349.834 352.889C399.769 349.547 412.637 308.097 412.006 281.046C363.76 296.536 285.784 248.902 286.193 238.366C286.519 229.936 295.194 220.317 299.49 216.562C303.614 216.572 312.206 216.295 313.582 215.103C311.008 209.072 305.275 205.468 302.73 204.42C301.854 201.387 297.643 194.377 287.806 190.598C275.511 185.874 264.392 188.899 259.303 192.237C258.326 192.878 257.177 193.661 255.937 194.506C250.718 198.063 243.884 202.721 241.44 202.52C238.416 202.27 194.94 183.381 203.247 118.804C176.865 113.771 152.418 118.031 142.676 161.864C132.934 205.697 166.711 270.726 195.417 264.948C195.163 265.78 194.918 266.591 194.678 267.384C191.315 278.502 189.03 286.059 176.865 301.033C168.689 311.098 157.634 318.708 148.667 324.88C139.77 331.005 132.93 335.714 133 340C133.054 343.261 133.64 347.471 134.243 351.797C134.913 356.603 135.603 361.552 135.603 365.5Z" fill="#4BBF8E"/>
</svg>
