<svg width="920" height="289" viewBox="0 0 920 289" fill="none" xmlns="http://www.w3.org/2000/svg">
<path fill-rule="evenodd" clip-rule="evenodd" d="M128 210C163.346 210 192 181.346 192 146C192 110.654 163.346 82 128 82C92.6538 82 64 110.654 64 146C64 181.346 92.6538 210 128 210ZM87.8678 182.5L87.9151 182.511C90.1578 183.037 101.026 185.586 101.992 183.898C102.198 183.539 102.596 182.638 103.151 181.379C105.876 175.204 112.406 160.407 118.804 158.551C118.163 170.55 147.164 179.107 159.278 178.296C175.923 177.182 180.212 163.366 180.002 154.349C163.92 159.512 137.928 143.634 138.064 140.122C138.173 137.312 141.065 134.106 142.497 132.854C143.871 132.857 146.735 132.765 147.194 132.368C146.336 130.357 144.425 129.156 143.577 128.807C143.285 127.796 141.881 125.459 138.602 124.199C134.504 122.625 130.797 123.633 129.101 124.746C128.775 124.959 128.392 125.22 127.979 125.502C126.239 126.688 123.961 128.24 123.147 128.173C122.139 128.09 107.647 121.794 110.416 100.268C101.622 98.5903 93.4728 100.01 90.2254 114.621C86.978 129.232 98.2369 150.909 107.806 148.983C107.721 149.26 107.639 149.53 107.559 149.795C106.438 153.501 105.677 156.02 101.622 161.011C98.8963 164.366 95.2112 166.903 92.2224 168.96C89.2567 171.002 86.9765 172.571 87 174C87.0179 175.087 87.2135 176.49 87.4145 177.932C87.6378 179.534 87.8678 181.184 87.8678 182.5Z" fill="#4BBF8E"/>
<path d="M299.648 103.52C308.181 103.52 315.051 105.867 320.256 110.56C325.461 115.168 328.064 121.397 328.064 129.248C328.064 137.099 325.461 143.371 320.256 148.064C315.051 152.672 308.181 154.976 299.648 154.976H280.064V188H269.824V103.52H299.648ZM298.112 145.376C304.683 145.376 309.504 144.053 312.576 141.408C315.733 138.677 317.312 134.624 317.312 129.248C317.312 123.872 315.733 119.861 312.576 117.216C309.504 114.485 304.683 113.12 298.112 113.12H280.064V145.376H298.112ZM398.509 180.576C400.216 180.576 401.922 180.363 403.629 179.936L402.989 188C400.6 188.853 398.04 189.28 395.309 189.28C391.981 189.28 389.336 188.555 387.373 187.104C385.496 185.653 384.301 183.221 383.789 179.808C381.826 182.795 378.925 185.141 375.085 186.848C371.33 188.469 367.362 189.28 363.181 189.28C356.866 189.28 351.661 187.829 347.565 184.928C343.469 181.941 341.421 177.675 341.421 172.128C341.421 167.264 343.554 163.083 347.821 159.584C352.088 156 358.274 153.525 366.381 152.16L383.405 149.344V145.76C383.405 141.493 382.082 138.08 379.437 135.52C376.792 132.96 373.122 131.68 368.429 131.68C364.162 131.68 360.45 132.704 357.293 134.752C354.221 136.8 351.832 139.829 350.125 143.84L342.573 138.336C344.28 133.557 347.437 129.76 352.045 126.944C356.738 124.128 362.2 122.72 368.429 122.72C376.024 122.72 382.125 124.555 386.733 128.224C391.341 131.893 393.645 137.312 393.645 144.48V175.968C393.645 177.504 394.029 178.656 394.797 179.424C395.565 180.192 396.802 180.576 398.509 180.576ZM363.693 180.32C369.069 180.32 373.677 179.04 377.517 176.48C381.442 173.92 383.405 170.592 383.405 166.496V157.664L369.069 160.352C363.352 161.376 359.085 162.869 356.269 164.832C353.453 166.709 352.045 169.141 352.045 172.128C352.045 174.773 353.069 176.821 355.117 178.272C357.165 179.637 360.024 180.32 363.693 180.32ZM440.289 189.28C434.145 189.28 428.598 188.085 423.649 185.696C418.7 183.221 415.073 179.595 412.769 174.816L421.089 169.056C422.54 172.811 425.057 175.627 428.641 177.504C432.225 179.381 436.449 180.32 441.313 180.32C446.348 180.32 450.188 179.424 452.833 177.632C455.478 175.84 456.801 173.579 456.801 170.848C456.801 168.373 455.564 166.411 453.089 164.96C450.614 163.424 446.262 162.101 440.033 160.992C433.889 159.883 429.025 158.56 425.441 157.024C421.857 155.403 419.254 153.397 417.633 151.008C416.012 148.533 415.201 145.504 415.201 141.92C415.201 138.421 416.225 135.221 418.273 132.32C420.321 129.419 423.265 127.115 427.105 125.408C430.945 123.616 435.382 122.72 440.417 122.72C447.244 122.72 452.705 124 456.801 126.56C460.982 129.035 463.969 132.875 465.761 138.08L457.057 143.2C455.692 139.104 453.601 136.16 450.785 134.368C448.054 132.576 444.598 131.68 440.417 131.68C436.236 131.68 432.694 132.619 429.793 134.496C426.892 136.373 425.441 138.549 425.441 141.024C425.441 143.84 426.678 146.016 429.153 147.552C431.713 149.088 436.236 150.411 442.721 151.52C451.596 152.971 457.868 155.147 461.537 158.048C465.206 160.949 467.041 165.045 467.041 170.336C467.041 174.005 465.932 177.291 463.713 180.192C461.58 183.008 458.465 185.227 454.369 186.848C450.358 188.469 445.665 189.28 440.289 189.28ZM507.789 189.28C501.645 189.28 496.098 188.085 491.149 185.696C486.2 183.221 482.573 179.595 480.269 174.816L488.589 169.056C490.04 172.811 492.557 175.627 496.141 177.504C499.725 179.381 503.949 180.32 508.813 180.32C513.848 180.32 517.688 179.424 520.333 177.632C522.978 175.84 524.301 173.579 524.301 170.848C524.301 168.373 523.064 166.411 520.589 164.96C518.114 163.424 513.762 162.101 507.533 160.992C501.389 159.883 496.525 158.56 492.941 157.024C489.357 155.403 486.754 153.397 485.133 151.008C483.512 148.533 482.701 145.504 482.701 141.92C482.701 138.421 483.725 135.221 485.773 132.32C487.821 129.419 490.765 127.115 494.605 125.408C498.445 123.616 502.882 122.72 507.917 122.72C514.744 122.72 520.205 124 524.301 126.56C528.482 129.035 531.469 132.875 533.261 138.08L524.557 143.2C523.192 139.104 521.101 136.16 518.285 134.368C515.554 132.576 512.098 131.68 507.917 131.68C503.736 131.68 500.194 132.619 497.293 134.496C494.392 136.373 492.941 138.549 492.941 141.024C492.941 143.84 494.178 146.016 496.653 147.552C499.213 149.088 503.736 150.411 510.221 151.52C519.096 152.971 525.368 155.147 529.037 158.048C532.706 160.949 534.541 165.045 534.541 170.336C534.541 174.005 533.432 177.291 531.213 180.192C529.08 183.008 525.965 185.227 521.869 186.848C517.858 188.469 513.165 189.28 507.789 189.28ZM608.441 152.672C608.441 155.061 608.27 157.451 607.929 159.84H559.673C560.27 166.325 562.404 171.36 566.073 174.944C569.828 178.528 574.649 180.32 580.537 180.32C585.23 180.32 589.113 179.509 592.185 177.888C595.342 176.267 597.476 173.92 598.585 170.848L607.161 175.328C604.601 179.851 601.188 183.307 596.921 185.696C592.654 188.085 587.193 189.28 580.537 189.28C570.894 189.28 563.3 186.336 557.753 180.448C552.292 174.56 549.561 166.411 549.561 156C549.561 145.589 552.164 137.44 557.369 131.552C562.66 125.664 570.126 122.72 579.769 122.72C585.742 122.72 590.905 124.043 595.257 126.688C599.609 129.333 602.894 132.917 605.113 137.44C607.332 141.963 608.441 147.04 608.441 152.672ZM579.769 131.68C574.137 131.68 569.572 133.344 566.073 136.672C562.66 140 560.569 144.693 559.801 150.752H598.585C597.902 144.779 595.94 140.128 592.697 136.8C589.454 133.387 585.145 131.68 579.769 131.68ZM658.112 122.72C661.184 122.72 663.531 123.147 665.152 124L663.104 133.984C661.056 132.875 658.368 132.32 655.04 132.32C652.309 132.32 649.621 133.131 646.976 134.752C644.416 136.288 642.283 138.677 640.576 141.92C638.955 145.077 638.144 148.917 638.144 153.44V188H627.904V124H636.224L637.632 134.496C641.216 126.645 648.043 122.72 658.112 122.72ZM685.274 111.712C682.97 111.712 681.093 111.029 679.642 109.664C678.277 108.213 677.594 106.336 677.594 104.032C677.594 101.728 678.277 99.8933 679.642 98.528C681.093 97.0773 682.97 96.352 685.274 96.352C687.578 96.352 689.413 97.0773 690.778 98.528C692.229 99.8933 692.954 101.728 692.954 104.032C692.954 106.336 692.229 108.213 690.778 109.664C689.413 111.029 687.578 111.712 685.274 111.712ZM690.394 188H680.154V124H690.394V188ZM745.258 122.72C752.511 122.72 758.485 124.811 763.178 128.992C767.871 133.173 770.218 139.189 770.218 147.04V188H759.978V150.624C759.978 143.968 758.527 139.147 755.626 136.16C752.81 133.173 749.013 131.68 744.234 131.68C740.821 131.68 737.621 132.448 734.634 133.984C731.647 135.435 729.173 137.867 727.21 141.28C725.333 144.608 724.394 148.832 724.394 153.952V188H714.154V124H723.114L723.754 133.984C725.887 130.144 728.831 127.328 732.586 125.536C736.341 123.659 740.565 122.72 745.258 122.72ZM848.316 152.672C848.316 155.061 848.145 157.451 847.804 159.84H799.548C800.145 166.325 802.279 171.36 805.948 174.944C809.703 178.528 814.524 180.32 820.412 180.32C825.105 180.32 828.988 179.509 832.06 177.888C835.217 176.267 837.351 173.92 838.46 170.848L847.036 175.328C844.476 179.851 841.063 183.307 836.796 185.696C832.529 188.085 827.068 189.28 820.412 189.28C810.769 189.28 803.175 186.336 797.628 180.448C792.167 174.56 789.436 166.411 789.436 156C789.436 145.589 792.039 137.44 797.244 131.552C802.535 125.664 810.001 122.72 819.644 122.72C825.617 122.72 830.78 124.043 835.132 126.688C839.484 129.333 842.769 132.917 844.988 137.44C847.207 141.963 848.316 147.04 848.316 152.672ZM819.644 131.68C814.012 131.68 809.447 133.344 805.948 136.672C802.535 140 800.444 144.693 799.676 150.752H838.46C837.777 144.779 835.815 140.128 832.572 136.8C829.329 133.387 825.02 131.68 819.644 131.68Z" fill="black"/>
</svg>
